<svg xmlns="http://www.w3.org/2000/svg" width="41" height="40" fill="none" viewBox="0 0 41 40">
    <g fill="#1A2332" clip-path="url(#clip0)">
        <path d="M37.332 28.8v-18c0-4.2-3.9-3.6-3.9-3.6h-26.4c-3.8 0-3.5 3.4-3.5 3.4v18.2h-3l2.2 4.3h35.5l2.2-4.3h-3.1zm-30.5-18.1h27.5v18h-27.5v-18zm22.1 20.1h-16.8l-.7-1.1h18.2l-.7 1.1z"/>
        <path d="M19.232 17.1c0 .2.1.4.2.6.1.2.3.4.6.5V16c-.3.1-.5.2-.6.4-.1.3-.2.5-.2.7zM21.032 20.4v2.5c.3-.1.6-.2.8-.4.2-.2.3-.5.3-.8 0-.3-.1-.5-.3-.7-.1-.4-.4-.5-.8-.6z"/>
        <path d="M20.533 12.7c-3.9 0-7.1 3.2-7.1 7.1 0 3.9 3.2 7.1 7.1 7.1 3.9 0 7.1-3.2 7.1-7.1 0-4-3.2-7.1-7.1-7.1zm2.5 10.6c-.5.5-1.1.9-2 1v1.2h-.9v-1.2c-.7-.1-1.3-.4-1.8-.8-.5-.5-.8-1.1-.9-2l1.7-.2c.1.3.2.6.4.9.2.2.4.4.6.5V20c-.8-.2-1.5-.6-1.9-1.1-.4-.5-.6-1.1-.6-1.8s.2-1.3.7-1.8c.4-.5 1-.8 1.8-.8V14h.9v.6c.7.1 1.2.3 1.6.7.4.4.7.9.8 1.5l-1.6.2c-.1-.5-.4-.8-.8-1v2.5c1 .3 1.7.6 2.1 1.1.4.4.6 1 .6 1.7 0 .8-.3 1.5-.7 2z"/>
    </g>
    <defs>
        <clipPath id="clip0">
            <path fill="#fff" d="M0 0H40V40H0z" transform="translate(.433)"/>
        </clipPath>
    </defs>
</svg>
