<svg xmlns="http://www.w3.org/2000/svg" width="41" height="40" fill="none" viewBox="0 0 41 40">
    <path fill="#1A2332" d="M7.332 12v3.6h3.6v-3h18.8v3h3.8V12h-26.2z"/>
    <path fill="#1A2332" d="M33.132 3.6h-25.6c-2 0-3.5 1.6-3.5 3.5v13.3c0 2 1.6 3.5 3.5 3.5h3.4v-1.7h-3.4c-1 0-1.9-.8-1.9-1.9V7.2c0-1 .8-1.9 1.9-1.9h25.6c1 0 1.9.8 1.9 1.9v13.3c0 1-.8 1.9-1.9 1.9h-3.5V24h3.5c2 0 3.5-1.6 3.5-3.5V7.2c.1-2-1.5-3.6-3.5-3.6z"/>
    <path fill="#1A2332" d="M30.132 36.5h-19.6V12.1h19.6v24.4zm-18.7-.8h17.9V13h-17.9v22.7z"/>
    <path fill="#1A2332" d="M25.232 12.6c.1 0 .1 0 0 0 0 2.8-2.2 5-4.9 5s-4.9-2.2-4.9-4.9v-.1h-2.3v18.9c1.4 0 2.6 1.1 2.6 2.6h9.1c0-1.4 1.1-2.6 2.6-2.6h.1V12.6h-2.3z"/>
</svg>
