<svg xmlns="http://www.w3.org/2000/svg" width="9" height="8" fill="none" viewBox="0 0 9 8">
    <path fill="#000" d="M4.402 7.473C2.479 7.473.929 5.923.929 4c0-1.923 1.55-3.473 3.473-3.473C6.324.527 7.874 2.077 7.874 4c0 1.922-1.55 3.473-3.472 3.473zm0-6.264c-1.55 0-2.73 1.24-2.73 2.791 0 1.55 1.241 2.729 2.73 2.729C5.89 6.729 7.13 5.489 7.13 4c0-1.488-1.24-2.79-2.728-2.79z"/>
    <path fill="#000" d="M6.324 4.837H3.968V2.605c0-.186.186-.372.372-.372s.372.186.372.372v1.488h1.612c.186 0 .372.186.372.372s-.186.372-.372.372z"/>
</svg>
