<svg xmlns="http://www.w3.org/2000/svg" width="33" height="32" fill="none" viewBox="0 0 33 32">
    <path fill="#000" d="M16.164 2.24h-.64C8.164 2.4 2.084 8.48 2.084 16s6.08 13.6 13.44 13.76h.64c1.28 0 2.4-.16 3.52-.48l-.16-.8-.16-.48-.32-.96c-.8.8-1.6 1.28-2.56 1.44v-4.96h1.44l-.32-1.28h-1.12v-5.28h6.08c0 .64-.16 1.44-.16 2.08l1.28.64c.16-.8.16-1.76.32-2.72h4.32c-.16 1.6-.48 3.2-1.12 4.48l1.12.64c.8-1.76 1.44-3.84 1.44-5.92-.16-7.68-6.08-13.76-13.6-13.92zm9.12 5.44c-.8.16-1.76.32-2.72.48-.32-.64-.48-1.28-.8-1.76-.48-.8-.96-1.6-1.6-2.08 1.92.64 3.68 1.76 5.12 3.36zm-15.2 1.92c1.6.16 3.36.32 5.12.32v5.76h-6.08c0-2.24.32-4.32.96-6.08zm5.12-6.08v4.96c-1.6 0-3.2-.16-4.64-.32 1.12-2.4 2.88-4.32 4.64-4.64zm1.28 0c1.92.32 3.52 2.08 4.64 4.8-1.44.16-3.04.32-4.64.32V3.52zm-4.96.8c-.48.48-.96 1.28-1.44 2.08-.32.48-.64 1.12-.8 1.76-.96-.16-1.92-.32-2.72-.48 1.28-1.6 3.04-2.72 4.96-3.36zM5.604 8.8c.96.16 1.92.48 3.04.64-.48 1.76-.8 4-.8 6.08h-4.48c.16-2.4.96-4.8 2.24-6.72zm2.24 8c0 2.08.48 4 .96 5.76-1.12.16-2.08.32-3.04.64-1.28-1.76-2.08-4-2.24-6.4h4.32zm-1.28 7.52c.8-.16 1.76-.32 2.72-.48.32.64.48 1.28.8 1.76.48.8.96 1.6 1.6 2.08-2.08-.64-3.84-1.76-5.12-3.36zm8.64 4.16c-1.92-.32-3.52-2.08-4.64-4.8 1.44-.16 3.04-.16 4.64-.32v5.12zm0-6.4c-1.76 0-3.52.16-5.12.32-.48-1.6-.96-3.52-.96-5.6h6.08v5.28zm1.28-6.56v-5.6c1.76 0 3.52-.16 5.12-.32.64 1.76.96 3.84.96 6.08l-6.08-.16zm7.52 0c0-2.24-.32-4.32-.96-6.24 1.12-.16 2.08-.32 3.04-.64 1.44 1.92 2.24 4.32 2.24 6.72h-4.32v.16z"/>
    <path fill="#000" d="M28.004 23.36l-10.08-5.28h-.16v.16l3.2 11.04c0 .16 0 .16.16.16l.16-.16 1.6-2.88s0-.16.16-.16c0 0 .16 0 .16.16l2.88 3.52.16.16h.32l1.28-.96c.16-.16.16-.32 0-.48l-2.88-3.52c-.16-.16 0-.32.16-.32l3.2-.96c-.16-.32-.16-.48-.32-.48z"/>
</svg>
