<svg xmlns="http://www.w3.org/2000/svg" width="41" height="40" fill="none" viewBox="0 0 41 40">
    <path fill="#1A2332" d="M20.633 2.8l-17 14h34l-17-14zm0 4.3l8.1 6.7h-16.3l8.2-6.7zM34.733 31.8h-28.2v2h-3.2v2.1h34.3v-2.1h-2.9v-2zM13.533 20.4c.6 0 1.1-.5 1.1-1.1 0-.6-.5-1.1-1.1-1.1h-4.5c-.6 0-1.1.5-1.1 1.1 0 .6.5 1.1 1.1 1.1v9.2h-.6c-.3 0-.6.3-.6.6s.3.6.6.6h5.6c.3 0 .6-.3.6-.6s-.3-.6-.6-.6h-.6l.1-9.2zM22.933 20.4c.6 0 1.1-.5 1.1-1.1 0-.6-.5-1.1-1.1-1.1h-4.5c-.6 0-1.1.5-1.1 1.1 0 .6.5 1.1 1.1 1.1v9.2h-.6c-.3 0-.6.3-.6.6s.3.6.6.6h5.6c.3 0 .6-.3.6-.6s-.3-.6-.6-.6h-.6l.1-9.2zM32.133 20.4c.6 0 1.1-.5 1.1-1.1 0-.6-.5-1.1-1.1-1.1h-4.5c-.6 0-1.1.5-1.1 1.1 0 .6.5 1.1 1.1 1.1v9.2h-.6c-.3 0-.6.3-.6.6s.3.6.6.6h5.6c.3 0 .6-.3.6-.6s-.3-.6-.6-.6h-.6l.1-9.2z"/>
</svg>
