<svg xmlns="http://www.w3.org/2000/svg" width="33" height="32" fill="none" viewBox="0 0 33 32">
    <path fill="#000" d="M16.433 4.667c.282 0 .564.072.776.204l10.588 6c.381.216.636.576.636.996v3.6c0 .66-.636 1.2-1.412 1.2-.283 0-.565-.072-.777-.204l-9.811-5.556-9.812 5.556c-.212.132-.494.204-.776.204-.777 0-1.412-.54-1.412-1.2v-3.6c0-.42.254-.78.635-.996l10.588-6c.212-.132.494-.204.777-.204z"/>
    <path fill="#000" d="M16.433 15.334c.282 0 .564.072.776.204l10.588 6c.381.215.636.575.636.995v3.6c0 .66-.636 1.2-1.412 1.2-.283 0-.565-.072-.777-.204l-9.811-5.556L6.62 27.13c-.212.132-.494.204-.776.204-.777 0-1.412-.54-1.412-1.2v-3.6c0-.42.254-.78.635-.996l10.588-6c.212-.131.494-.204.777-.204z"/>
</svg>
