<?xml version="1.0" encoding="utf-8"?>
<!-- Generator: Adobe Illustrator 25.1.0, SVG Export Plug-In . SVG Version: 6.00 Build 0)  -->
<svg version="1.1" id="Layer_1" xmlns="http://www.w3.org/2000/svg" xmlns:xlink="http://www.w3.org/1999/xlink" x="0px" y="0px"
	 viewBox="0 0 38.1 30.9" style="enable-background:new 0 0 38.1 30.9;" xml:space="preserve">
<style type="text/css">
	.st0{fill-rule:evenodd;clip-rule:evenodd;fill:#1A2332;}
</style>
<path class="st0" d="M28.3,21.6l5.7,5.7c-0.3,0.7-0.1,1.5,0.4,2.1c0.8,0.8,2,0.8,2.8,0c0.8-0.8,0.8-2,0-2.8
	c-0.6-0.6-1.4-0.7-2.1-0.4l-6.1-6.1h-24v1.5L28.3,21.6L28.3,21.6L28.3,21.6z M35.2,28.6c0.3,0.3,0.7,0.3,1,0c0.3-0.3,0.3-0.7,0-1
	c-0.3-0.3-0.7-0.3-1,0C34.9,27.8,34.9,28.3,35.2,28.6z M28.3,9.9l5.7-5.7c-0.3-0.7-0.1-1.5,0.4-2.1c0.8-0.8,2-0.8,2.8,0
	c0.8,0.8,0.8,2,0,2.8c-0.6,0.6-1.4,0.7-2.1,0.4l-6.1,6.1h-24V9.9C4.9,9.9,28.3,9.9,28.3,9.9z M35.2,3c0.3-0.3,0.7-0.3,1,0
	c0.3,0.3,0.3,0.7,0,1c-0.3,0.3-0.7,0.3-1,0C34.9,3.7,34.9,3.3,35.2,3z"/>
<path class="st0" d="M6.1,9.9v11.8H4.5V9.9H6.1L6.1,9.9z M14,11c2.6,0,4.7,2.1,4.7,4.7s-2.1,4.7-4.7,4.7s-4.7-2.1-4.7-4.7
	S11.4,11,14,11z M11.8,17.3c1.2,0.1,2.1,0.1,2.6,0.1c0.1,0,0.2,0,0.3-0.1c0.1-0.1,0.1-0.2,0.1-0.3v-0.8h-1.5c-0.6,0-0.9-0.1-1.2-0.4
	c-0.3-0.3-0.4-0.6-0.4-1.2v-0.1c0-0.6,0.1-1,0.4-1.2c0.3-0.3,0.7-0.4,1.2-0.4h0.2l-0.1-0.7h1.2L14.5,13h1.3v1.1h-2.1
	c-0.3,0-0.5,0.2-0.5,0.5v0.2c0,0.3,0.2,0.5,0.5,0.5h1.1c0.5,0,0.9,0.1,1.1,0.4c0.2,0.2,0.4,0.6,0.4,1.1v0.4c0,0.5-0.1,0.9-0.4,1.1
	c-0.2,0.2-0.6,0.4-1.1,0.4h-0.2l0.1,0.7h-1.2l0.1-0.7c-0.6,0-1.2-0.1-1.7-0.1L11.8,17.3C11.8,17.3,11.8,17.3,11.8,17.3z M30.3,17.5
	V19h-8.3v-1.5H30.3z M30.3,12.5V14h-8.3v-1.5H30.3z M21.9,16.5V15h11.9c0.3-0.7,1-1.2,1.8-1.2c1.1,0,2,0.9,2,2s-0.9,2-2,2
	c-0.8,0-1.5-0.5-1.8-1.2L21.9,16.5L21.9,16.5L21.9,16.5z M35.6,15c0.4,0,0.7,0.3,0.7,0.7c0,0.4-0.3,0.7-0.7,0.7s-0.7-0.3-0.7-0.7
	C34.9,15.4,35.2,15,35.6,15z M25.4,24.2l3.6,3.6c-0.3,0.7-0.1,1.5,0.4,2.1c0.8,0.8,2,0.8,2.8,0c0.8-0.8,0.8-2,0-2.8
	c-0.6-0.6-1.4-0.7-2.1-0.4l-4.1-4.1H3.8c0.3,0.5,0.7,1.1,1.1,1.5H25.4z M30.4,29c0.3,0.3,0.7,0.3,1,0c0.3-0.3,0.3-0.7,0-1
	c-0.3-0.3-0.7-0.3-1,0C30.1,28.3,30.1,28.7,30.4,29z M25.4,7.4l3.6-3.6c-0.3-0.7-0.1-1.5,0.4-2.1c0.8-0.8,2-0.8,2.8,0
	c0.8,0.8,0.8,2,0,2.8c-0.6,0.6-1.4,0.7-2.1,0.4l-4.1,4.1H3.8c0.3-0.5,0.7-1.1,1.1-1.5H25.4z M30.4,2.5c0.3-0.3,0.7-0.3,1,0
	c0.3,0.3,0.3,0.7,0,1c-0.3,0.3-0.7,0.3-1,0C30.1,3.3,30.1,2.8,30.4,2.5z"/>
<path class="st0" d="M14,2.9c4.3,0,8.1,2.1,10.5,5.4h-2c-2.1-2.3-5.1-3.8-8.5-3.8C7.8,4.4,2.6,9.5,2.6,15.8S7.8,27.1,14,27.1
	c3.4,0,6.4-1.5,8.5-3.8h2c-2.3,3.2-6.2,5.4-10.5,5.4c-7.1,0-12.9-5.8-12.9-12.9C1.1,8.7,6.9,2.9,14,2.9z"/>
</svg>
