<svg xmlns="http://www.w3.org/2000/svg" width="41" height="40" fill="none" viewBox="0 0 41 40">
    <path fill="#1A2332" d="M30.132 36.1h-19.1c-2.6 0-4.7-2.1-4.7-4.7V8.7c0-2.6 2.1-4.7 4.7-4.7h19.1c2.6 0 4.7 2.1 4.7 4.7v22.7c0 2.5-2.1 4.7-4.7 4.7zm-19.1-30.4c-1.6 0-3 1.3-3 3v22.7c0 1.6 1.3 3 3 3h19.1c1.6 0 3-1.3 3-3V8.7c0-1.6-1.3-3-3-3h-19.1z"/>
    <path fill="#1A2332" d="M29.532 11.2h-9.8c-.5 0-.9.4-.9.9v.7c0 .5.4.9.9.9h9.8c.5 0 .9-.4.9-.9v-.7c0-.5-.4-.9-.9-.9zM29.532 19h-9.8c-.5 0-.9.4-.9.9v.7c0 .5.4.9.9.9h9.8c.5 0 .9-.4.9-.9v-.7c0-.5-.4-.9-.9-.9zM29.532 26.5h-9.8c-.5 0-.9.4-.9.9v.6c0 .5.4.9.9.9h9.8c.5 0 .9-.4.9-.9v-.7c0-.4-.4-.8-.9-.8z"/>
    <path fill="#BF0003" d="M13.232 31.2l-3-3.1c-.5-.5-.5-1.3 0-1.8s1.3-.5 1.8 0l1 1 2.8-3.4c.4-.5 1.2-.6 1.8-.2.5.4.6 1.2.2 1.8l-4.6 5.7zM13.232 23.7l-3-3.1c-.5-.5-.5-1.3 0-1.8s1.3-.5 1.8 0l1 1 2.8-3.4c.4-.5 1.2-.6 1.8-.2.5.4.6 1.2.2 1.8l-4.6 5.7zM13.232 16.4l-3-3.1c-.5-.5-.5-1.3 0-1.8s1.3-.5 1.8 0l1 1 2.8-3.4c.4-.5 1.2-.6 1.8-.2.5.4.6 1.2.2 1.8l-4.6 5.7z"/>
</svg>
