<svg xmlns="http://www.w3.org/2000/svg" width="41" height="40" fill="none" viewBox="0 0 41 40">
    <path fill="#000" d="M30.132 36.1h-19.1c-2.6 0-4.7-2.1-4.7-4.7V8.7c0-2.6 2.1-4.7 4.7-4.7h19.1c2.6 0 4.7 2.1 4.7 4.7v22.7c0 2.5-2.1 4.7-4.7 4.7zm-19.1-30.4c-1.6 0-3 1.3-3 3v22.7c0 1.6 1.3 3 3 3h19.1c1.6 0 3-1.3 3-3V8.7c0-1.6-1.3-3-3-3h-19.1z"/>
    <path fill="#000" d="M29.027 11.2H12.63c-.837 0-1.506.4-1.506.9v.7c0 .5.67.9 1.506.9h16.397c.836 0 1.505-.4 1.505-.9v-.7c0-.5-.669-.9-1.505-.9zM20.555 19h-8.638c-.44 0-.793.4-.793.9v.7c0 .5.353.9.793.9h8.638c.44 0 .793-.4.793-.9v-.7c0-.5-.353-.9-.793-.9zM17.112 26.5h-5.484c-.28 0-.504.4-.504.9v.6c0 .5.224.9.504.9h5.484c.28 0 .504-.4.504-.9v-.7c0-.4-.224-.8-.504-.8z"/>
    <g clip-path="url(#clip0)">
        <path fill="#000" d="M19.152 28.491l.33 3.655 3.403-1.372 6.012-9.83-3.732-2.283-6.012 9.83zM29.512 19.938l-3.732-2.283-.444.726 3.732 2.283.444-.726zM30.093 18.988l-3.732-2.282-.444.726 3.732 2.283.444-.727zM29.525 15.725c-1.042-.638-2.378-.304-3.027.757l3.732 2.283c.649-1.061.338-2.403-.705-3.04z"/>
    </g>
    <defs>
        <clipPath id="clip0">
            <path fill="#fff" d="M0 0H4.375V19.25H0z" transform="rotate(31.451 -12.067 56.409)"/>
        </clipPath>
    </defs>
</svg>
