<svg xmlns="http://www.w3.org/2000/svg" width="33" height="32" fill="none" viewBox="0 0 33 32">
    <path fill="#000" d="M23.044 2.24H9.284c-1.12 0-1.92.96-1.92 2.08v23.2c0 1.12.96 2.08 2.08 2.08h13.76c1.12 0 2.08-.96 2.08-2.08V4.32c-.16-1.12-1.12-2.08-2.24-2.08zm-6.88 26.24c-.64 0-1.28-.64-1.28-1.28s.64-1.28 1.28-1.28 1.28.64 1.28 1.28c0 .8-.48 1.28-1.28 1.28zm7.04-3.36H9.124V4.32h14.08v20.8z"/>
    <path fill="#000" d="M12.964 16.32c.8 0 1.6-.64 1.6-1.6 0-.8-.64-1.6-1.6-1.6-.8 0-1.6.64-1.6 1.6 0 .96.8 1.6 1.6 1.6z"/>
    <path fill="#000" d="M14.405 12.32c.96.48 1.44 1.44 1.44 2.4s-.48 2.08-1.44 2.56c-.48.32-.64.96-.32 1.44.16.32.48.48.8.48.16 0 .32 0 .48-.16 1.6-.96 2.4-2.56 2.4-4.32 0-1.76-.96-3.36-2.4-4.32-.48-.16-.96 0-1.28.48-.32.48-.16 1.12.32 1.44z"/>
    <path fill="#000" d="M15.844 9.12c2.08 1.12 3.52 3.2 3.52 5.6 0 2.4-1.28 4.64-3.52 5.6-.48.32-.64.8-.48 1.44.16.32.48.64.96.64.16 0 .32 0 .48-.16 2.88-1.44 4.64-4.32 4.64-7.52 0-3.2-1.76-6.08-4.64-7.52-.48-.32-1.12 0-1.44.48-.32.64 0 1.28.48 1.44z"/>
</svg>
