<?xml version="1.0" encoding="utf-8"?>
<!-- Generator: Adobe Illustrator 25.1.0, SVG Export Plug-In . SVG Version: 6.00 Build 0)  -->
<svg version="1.1" id="Layer_1" xmlns="http://www.w3.org/2000/svg" xmlns:xlink="http://www.w3.org/1999/xlink" x="0px" y="0px"
	 viewBox="0 0 12 20" style="enable-background:new 0 0 12 20;" xml:space="preserve">
<style type="text/css">
	.st0{fill:#1A2332;}
</style>
<path class="st0" d="M10.5,19.7l0.6-0.7c0.2-0.2,0.3-0.5,0.3-0.8c0-0.3-0.1-0.6-0.3-0.8L3.9,10l7.2-7.5c0.2-0.2,0.3-0.5,0.3-0.8
	c0-0.3-0.1-0.6-0.3-0.8l-0.6-0.7c-0.4-0.4-1.1-0.4-1.5,0L0.3,9.2C0.1,9.4,0,9.7,0,10v0c0,0.3,0.1,0.6,0.3,0.8L9,19.7
	C9.2,19.9,9.4,20,9.7,20C10,20,10.3,19.9,10.5,19.7z"/>
</svg>
