<svg width="49" height="49" fill="none" xmlns="http://www.w3.org/2000/svg">
    <g clip-path="url(#a)" fill="#1A2332">
        <path d="M45.271 35.06v-21.6c0-5.04-4.68-4.32-4.68-4.32H8.911c-4.56 0-4.2 4.08-4.2 4.08v21.84h-3.6l2.64 5.16h42.6l2.64-5.16h-3.72zm-36.6-21.72h33v21.6h-33v-21.6zm26.52 24.12h-20.16l-.84-1.32h21.84l-.84 1.32z"/>
        <path d="M23.552 21.02c0 .24.12.48.24.72s.36.48.72.6V19.7c-.36.12-.6.24-.72.48-.12.36-.24.6-.24.84zM25.712 24.98v3c.36-.12.72-.24.96-.48s.36-.6.36-.96-.12-.6-.36-.84c-.12-.48-.48-.6-.96-.72z"/>
        <path d="M25.112 15.74c-4.68 0-8.52 3.84-8.52 8.52s3.84 8.52 8.52 8.52 8.52-3.84 8.52-8.52c0-4.8-3.84-8.52-8.52-8.52zm3 12.72c-.6.6-1.32 1.08-2.4 1.2v1.44h-1.08v-1.44c-.84-.12-1.56-.48-2.16-.96-.6-.6-.96-1.32-1.08-2.4l2.04-.24c.12.36.24.72.48 1.08.24.24.48.48.72.6V24.5c-.96-.24-1.8-.72-2.28-1.32-.48-.6-.72-1.32-.72-2.16 0-.84.24-1.56.84-2.16.48-.6 1.2-.96 2.16-.96v-.6h1.08v.72c.84.12 1.44.36 1.92.84s.84 1.08.96 1.8l-1.92.24c-.12-.6-.48-.96-.96-1.2v3c1.2.36 2.04.72 2.52 1.32.48.48.72 1.2.72 2.04 0 .96-.36 1.8-.84 2.4z"/>
    </g>
    <defs>
        <clipPath id="a">
            <path fill="#fff" transform="translate(.991 .5)" d="M0 0h48v48H0z"/>
        </clipPath>
    </defs>
</svg>
