<svg width="49" height="49" fill="none" xmlns="http://www.w3.org/2000/svg">
    <path d="m25.233 3.86-20.4 16.8h40.8l-20.4-16.8zm0 5.16 9.72 8.04h-19.56l9.84-8.04zM42.153 38.66H8.313v2.4h-3.84v2.52H45.633v-2.52h-3.48v-2.4zM16.713 24.98c.72 0 1.32-.6 1.32-1.32 0-.72-.6-1.32-1.32-1.32h-5.4c-.72 0-1.32.6-1.32 1.32 0 .72.6 1.32 1.32 1.32v11.04h-.72c-.36 0-.72.36-.72.72s.36.72.72.72h6.72c.36 0 .72-.36.72-.72s-.36-.72-.72-.72h-.72l.12-11.04zM27.992 24.98c.72 0 1.32-.6 1.32-1.32 0-.72-.6-1.32-1.32-1.32h-5.4c-.72 0-1.32.6-1.32 1.32 0 .72.6 1.32 1.32 1.32v11.04h-.72c-.36 0-.72.36-.72.72s.36.72.72.72h6.72c.36 0 .72-.36.72-.72s-.36-.72-.72-.72h-.72l.12-11.04zM39.032 24.98c.72 0 1.32-.6 1.32-1.32 0-.72-.6-1.32-1.32-1.32h-5.4c-.72 0-1.32.6-1.32 1.32 0 .72.6 1.32 1.32 1.32v11.04h-.72c-.36 0-.72.36-.72.72s.36.72.72.72h6.72c.36 0 .72-.36.72-.72s-.36-.72-.72-.72h-.72l.12-11.04z" fill="#000"/>
</svg>
