<svg width="49" height="49" fill="none" xmlns="http://www.w3.org/2000/svg">
    <path d="M8.912 15.02v4.44h4.56v-3.84h23.04v3.84h4.68v-4.44H8.912z" fill="#000"/>
    <path d="M40.712 4.7H9.272c-2.4 0-4.32 1.92-4.32 4.32v16.44c0 2.4 1.92 4.32 4.32 4.32h4.2v-2.04h-4.2c-1.32 0-2.28-1.08-2.28-2.28V9.02c0-1.32 1.08-2.28 2.28-2.28h31.56c1.32 0 2.28 1.08 2.28 2.28v16.44c0 1.32-1.08 2.28-2.28 2.28h-4.32v2.04h4.32c2.4 0 4.32-1.92 4.32-4.32V9.02c0-2.4-1.92-4.32-4.44-4.32z" fill="#000"/>
    <path d="M33.392 45.14h-16.8c-2.04 0-3.6-1.68-3.6-3.6v-26.4h24v26.4c0 2.04-1.56 3.6-3.6 3.6zm-19.44-28.92v25.32c0 1.44 1.2 2.64 2.64 2.64h16.8c1.44 0 2.64-1.2 2.64-2.64V16.22h-22.08z" fill="#000"/>
    <path d="M23.433 15.98h-6.12v25.56h6.12V15.98zM28.232 28.34h-1.32v13.08h1.32V28.34zM31.112 18.74h-1.32v22.68h1.32V18.74z" fill="#000"/>
</svg>
