<svg width="50" height="49" fill="none" xmlns="http://www.w3.org/2000/svg">
    <path d="M9.272 14.9v4.32h4.32v-3.6h22.56v3.6h4.56V14.9H9.272z" fill="#000"/>
    <path d="M40.233 4.82H9.513c-2.4 0-4.2 1.92-4.2 4.2v15.96c0 2.4 1.92 4.2 4.2 4.2h4.08v-2.04h-4.08c-1.2 0-2.28-.96-2.28-2.28V9.14c0-1.2.96-2.28 2.28-2.28h30.72c1.2 0 2.28.96 2.28 2.28V25.1c0 1.2-.96 2.28-2.28 2.28h-4.2v1.92h4.2c2.4 0 4.2-1.92 4.2-4.2V9.14c.12-2.4-1.8-4.32-4.2-4.32z" fill="#000"/>
    <path d="M36.632 44.3h-23.52V15.02h23.52V44.3zm-22.44-.96h21.48V16.1h-21.48v27.24z" fill="#000"/>
    <path d="M30.752 15.62c.12 0 .12 0 0 0 0 3.36-2.64 6-5.88 6a5.89 5.89 0 0 1-5.88-5.88v-.12h-2.76V38.3c1.68 0 3.12 1.32 3.12 3.12h10.92c0-1.68 1.32-3.12 3.12-3.12h.12V15.62h-2.76z" fill="#000"/>
</svg>
