<?xml version="1.0" standalone="no"?>
<!DOCTYPE svg PUBLIC "-//W3C//DTD SVG 1.1//EN" "http://www.w3.org/Graphics/SVG/1.1/DTD/svg11.dtd" >
<svg xmlns="http://www.w3.org/2000/svg">
<metadata></metadata>
<defs>
<font id="avantgarde_lt_mediumregular" horiz-adv-x="1136" >
<font-face units-per-em="2048" ascent="1638" descent="-410" />
<missing-glyph horiz-adv-x="567" />
<glyph horiz-adv-x="0" />
<glyph unicode="&#xd;" horiz-adv-x="567" />
<glyph unicode=" "  horiz-adv-x="567" />
<glyph unicode="&#x09;" horiz-adv-x="567" />
<glyph unicode="&#xa0;" horiz-adv-x="567" />
<glyph unicode="!" horiz-adv-x="567" d="M178 0v250h213v-250h-213zM178 373v1143h213v-1143h-213z" />
<glyph unicode="&#x22;" horiz-adv-x="665" d="M41 1516h225l-41 -607h-145zM401 1516h226l-41 -607h-146z" />
<glyph unicode="#" d="M61 418l5 172h206l35 254h-184l4 172h205l57 418h182l-57 -418h209l57 418h183l-58 -418h168l-4 -172h-188l-35 -254h166l-4 -172h-187l-59 -418h-180l57 418h-209l-59 -418h-181l58 418h-187zM455 590h209l34 254h-209z" />
<glyph unicode="$" d="M139 471h213q6 -68 30 -113t55.5 -70.5t69.5 -35.5t73 -10q53 0 92 19.5t63.5 51t36.5 73.5t12 89q0 63 -27.5 104.5t-67.5 68t-85 39.5t-82 24q-35 10 -89 28.5t-106.5 58.5t-90 107.5t-37.5 175.5q0 45 12 101.5t45 111t86 98.5t137 64v230h195v-230q127 -16 212 -105 t91 -249h-213q-6 78 -49 125t-131 47q-43 0 -76 -17.5t-54.5 -45t-31.5 -62.5t-10 -68q0 -51 17 -82.5t49 -53t77 -36t100 -28.5q31 -8 88.5 -27.5t113.5 -64t98 -120t42 -194.5q0 -53 -13 -118.5t-50 -126t-99.5 -107.5t-160.5 -64v-227h-195v227q-68 16 -127 48t-104 82.5 t-74 120t-35 161.5z" />
<glyph unicode="%" horiz-adv-x="1714" d="M106 1171q0 76 30 142.5t80 117t117.5 79t143.5 28.5t143.5 -28.5t117.5 -79t80 -117t30 -142.5t-30 -142t-80 -116.5t-117.5 -79t-143.5 -28.5t-143.5 28.5t-117.5 79t-80 116.5t-30 142zM291 1171q0 -39 14 -73.5t40 -60t59.5 -41t72.5 -15.5t73 15.5t59.5 41t40 60.5 t14.5 73q0 39 -14.5 74t-40 60.5t-59.5 41t-73 15.5t-72.5 -15.5t-59.5 -41t-40 -60.5t-14 -74zM346 0l868 1516h138l-869 -1516h-137zM864 340q0 76 30 142.5t80 116.5t117.5 79t143.5 29t143.5 -29t117.5 -79t80 -116.5t30 -142.5t-30 -142.5t-80 -116.5t-117.5 -79 t-143.5 -29t-143.5 29t-117.5 79t-80 116.5t-30 142.5zM1049 340q0 -39 14 -74t39.5 -60.5t59.5 -40.5t73 -15t72.5 15t59.5 40.5t40 60.5t14 74t-14 74t-40 60.5t-59.5 40.5t-72.5 15t-73 -15t-59.5 -40.5t-39.5 -60.5t-14 -74z" />
<glyph unicode="&#x26;" horiz-adv-x="1400" d="M70 424q0 66 17 129t53 119.5t91.5 103.5t128.5 80q-29 31 -55 61.5t-46.5 66.5t-32 78t-11.5 95q0 84 29.5 155.5t82 123t122 80t149.5 28.5q76 0 143.5 -28.5t119.5 -79t83 -121t31 -156.5q0 -47 -11.5 -96t-41 -97t-78.5 -91.5t-123 -79.5l201 -197l165 334h240 l-248 -500l305 -311l-147 -150l-264 267q-18 -29 -53 -74t-89.5 -88t-128 -74t-170.5 -31q-98 0 -182 35t-146.5 96.5t-98 143.5t-35.5 178zM291 424q0 -47 15.5 -92t46 -80t75.5 -56.5t104 -21.5q68 0 119 26.5t86 63.5t56.5 73t31.5 54l-319 316q-31 -10 -69 -31 t-70.5 -53.5t-54 -81.5t-21.5 -117zM436 1157q0 -23 5 -46.5t19.5 -49t40 -54t64.5 -65.5q86 45 137.5 92t51.5 131q0 47 -15.5 80t-39 54.5t-51 31.5t-52.5 10q-29 0 -57.5 -11t-51 -34.5t-37 -58.5t-14.5 -80z" />
<glyph unicode="'" horiz-adv-x="446" d="M111 1516h225l-41 -607h-143z" />
<glyph unicode="(" horiz-adv-x="833" d="M113 518q0 164 46 319.5t128 291t192.5 243t239.5 174.5v-264q-59 -53 -126 -119.5t-125 -158t-96 -210t-38 -274.5q0 -172 44 -300t105.5 -221t130 -156.5t117.5 -102.5v-266q-98 49 -206.5 142t-201 226t-151.5 303t-59 373z" />
<glyph unicode=")" horiz-adv-x="833" d="M102 1280v266q100 -51 210 -145t200 -227.5t149.5 -302.5t59.5 -369q0 -164 -46 -319.5t-128 -291t-192.5 -243t-239.5 -174.5v264q57 51 124.5 118.5t126 157.5t96.5 209t38 277q0 170 -43 298t-105.5 222t-131 156.5t-118.5 103.5z" />
<glyph unicode="*" horiz-adv-x="1173" d="M197 1180l45 135l278 -94l-2 295h144l-7 -295l279 94l45 -135l-283 -88l178 -236l-116 -84l-170 242l-170 -242l-117 84l178 236z" />
<glyph unicode="+" horiz-adv-x="1228" d="M98 412v213h410v411h213v-411h409v-213h-409v-412h-213v412h-410z" />
<glyph unicode="," horiz-adv-x="567" d="M178 0v250h213v-227q0 -29 -4 -71t-25.5 -84t-64.5 -78t-119 -50v127q12 4 25.5 10t25 18.5t18.5 33t7 53.5v18h-76z" />
<glyph unicode="-" horiz-adv-x="573" d="M0 485v213h573v-213h-573z" />
<glyph unicode="." horiz-adv-x="567" d="M178 0v250h213v-250h-213z" />
<glyph unicode="/" horiz-adv-x="1021" d="M84 -205l590 1721h233l-590 -1721h-233z" />
<glyph unicode="0" d="M78 504v528q0 143 50 242.5t125 159t162 86t158 26.5q84 0 171 -31.5t157 -94t114 -157t44 -216.5v-560q0 -88 -18.5 -172t-92.5 -170q-27 -29 -63.5 -59.5t-83.5 -56t-106.5 -42t-129.5 -16.5q-72 0 -132 17.5t-107 45t-83 59.5t-61 63q-39 47 -60.5 96t-30.5 95t-11 86 t-2 71zM291 487q0 -117 39 -182t88 -96t95 -37t60 -6q63 0 114.5 26.5t90.5 69.5q51 59 59.5 112.5t8.5 112.5v560q0 100 -32 159.5t-76 92t-90 43t-77 10.5q-41 0 -89 -13.5t-91 -48.5t-71.5 -93t-28.5 -150v-560z" />
<glyph unicode="1" d="M303 1321v195h436v-1516h-213v1321h-223z" />
<glyph unicode="2" d="M76 995q-2 168 50 274.5t127 168t157 84t141 22.5q109 0 198 -41t151.5 -109.5t96 -156.5t33.5 -182q0 -76 -18.5 -137.5t-48 -112.5t-67.5 -95t-77 -83l-422 -432h635v-195h-948v178l596 606q55 55 96 121t41 156q0 51 -17.5 103.5t-50 93t-80.5 66.5t-110 26 q-43 0 -91 -16.5t-88 -54.5t-65.5 -98.5t-25.5 -146.5v-39h-213z" />
<glyph unicode="3" d="M45 446h213q4 -100 43 -156.5t87 -84t92 -33.5t61 -6q63 0 114.5 25.5t86 65.5t53 89t18.5 98q0 61 -23.5 112.5t-62.5 86.5t-90 54.5t-107 19.5h-77v213h73q82 0 127 31.5t66.5 70.5t25 72t3.5 37q0 41 -14.5 78.5t-41 66.5t-64.5 46.5t-83 17.5q-16 0 -46 -5.5t-63 -26 t-59.5 -63.5t-34.5 -118h-213q8 129 59.5 208.5t119 123.5t135 59.5t108.5 15.5q90 0 165 -31.5t129 -88t85 -133.5t31 -167q0 -61 -12.5 -106t-32 -79t-44 -59.5t-51.5 -50.5q66 -41 106 -92t62.5 -102t29.5 -99.5t7 -82.5q0 -115 -40 -204t-107.5 -150.5t-156.5 -94.5 t-187 -33q-96 0 -184.5 35t-156 98.5t-108.5 150.5t-41 191z" />
<glyph unicode="4" d="M25 238v206l692 1072h213v-1084h160v-194h-160v-238h-213v238h-692zM270 432h447v729h-4z" />
<glyph unicode="5" d="M51 459h213q25 -127 101.5 -210t203.5 -83q57 0 112.5 24.5t97.5 69.5t67.5 105.5t25.5 132.5q0 68 -20.5 131t-58 113.5t-92 80t-123.5 29.5q-63 0 -109.5 -17.5t-79.5 -43t-52.5 -52t-31.5 -45.5l-184 43l127 779h692v-195h-516l-57 -336q23 14 71.5 38t139.5 24 q115 0 208 -42t159.5 -114t103 -169t36.5 -208q0 -104 -36.5 -202.5t-104 -174.5t-163 -121t-214.5 -45q-109 0 -197.5 37t-156.5 101.5t-110 153.5t-52 196z" />
<glyph unicode="6" d="M51 487q0 68 14.5 127.5t33 105.5t38 78.5t29.5 51.5l426 666h252l-322 -498q27 4 45.5 7t44.5 3q106 0 196.5 -41t155 -110.5t100.5 -162.5t36 -198q0 -113 -39 -212t-108.5 -173t-166 -117t-208.5 -43q-137 0 -236.5 53.5t-164 132.5t-95.5 168t-31 162zM264 508 q0 -72 23.5 -133.5t64.5 -108.5t99.5 -73.5t126.5 -26.5t124 27.5t98 73.5t64.5 104.5t22.5 122.5q0 72 -23.5 134t-64.5 108t-97.5 72t-119.5 26q-66 0 -123.5 -26t-100.5 -71t-68.5 -103t-25.5 -126z" />
<glyph unicode="7" d="M145 1321v195h879v-195l-555 -1321h-238l572 1321h-658z" />
<glyph unicode="8" d="M88 446q0 88 22.5 154t53.5 112t64.5 75.5t58.5 48.5q-20 20 -43 44.5t-42.5 58.5t-31.5 80t-12 107q0 92 34.5 169t92 132.5t132.5 86t154 30.5q84 0 158 -32.5t129 -90t88 -132.5t33 -161q0 -66 -13.5 -113.5t-34 -81.5t-44 -56.5t-43.5 -40.5q70 -47 109.5 -101.5 t60 -108t27 -99.5t6.5 -74q0 -102 -39 -189.5t-104.5 -153t-152.5 -102.5t-184 -37q-88 0 -174 33t-153.5 94.5t-109.5 149.5t-42 198zM301 436q0 -55 21.5 -104t57.5 -86t84 -58.5t101 -21.5q61 0 110.5 23.5t84.5 62.5t54.5 87t19.5 95q0 68 -24 120t-62.5 88t-86 55.5 t-94.5 19.5q-59 0 -108 -23.5t-84 -63.5t-54.5 -90.5t-19.5 -103.5zM371 1141q0 -35 13 -72t37.5 -66.5t61.5 -49t84 -19.5q49 0 87 18.5t62.5 48t37 68.5t12.5 80q0 33 -12.5 68.5t-37 64.5t-61.5 48.5t-86 19.5q-43 0 -79.5 -17.5t-63.5 -46.5t-41 -66.5t-14 -78.5z" />
<glyph unicode="9" d="M37 1001q0 111 39 209.5t107.5 172t163.5 117.5t210 44q137 0 237.5 -53t164 -132t94 -169t30.5 -160q0 -98 -31.5 -189t-84.5 -175l-422 -666h-252l321 498q-27 -4 -46 -6.5t-42 -2.5q-94 0 -182 36t-156.5 102.5t-109.5 162t-41 211.5zM250 1022q0 -68 23.5 -129.5 t64.5 -107.5t97.5 -73.5t121.5 -27.5q74 0 132.5 29.5t98 77t61 105t21.5 112.5q0 72 -23.5 134t-65.5 108t-98 73t-124 27t-125 -28t-98 -74t-63.5 -104.5t-22.5 -121.5z" />
<glyph unicode=":" horiz-adv-x="567" d="M178 0v250h213v-250h-213zM178 887v250h213v-250h-213z" />
<glyph unicode=";" horiz-adv-x="567" d="M178 0v250h213v-227q0 -29 -4 -71t-25.5 -84t-64.5 -78t-119 -50v127q12 4 25.5 10t25 18.5t18.5 33t7 53.5v18h-76zM178 887v250h213v-250h-213z" />
<glyph unicode="&#x3c;" horiz-adv-x="1228" d="M94 430v176l1041 447v-209l-764 -326l764 -325v-209z" />
<glyph unicode="=" horiz-adv-x="1228" d="M98 188v213h1032v-213h-1032zM98 635v213h1032v-213h-1032z" />
<glyph unicode="&#x3e;" horiz-adv-x="1228" d="M94 -16v209l764 325l-764 326v209l1041 -447v-176z" />
<glyph unicode="?" horiz-adv-x="1060" d="M66 1083q6 129 54 218.5t116.5 142.5t146.5 76.5t143 23.5q100 0 183.5 -40t142.5 -104.5t93 -146.5t34 -168q0 -74 -15.5 -127t-42 -94t-59.5 -73.5t-65 -63.5q-55 -49 -88 -94t-50.5 -86t-24.5 -80t-13 -78h-213q2 88 23.5 157.5t53 125t67.5 97.5t69 75 q41 43 68.5 72.5t45 54t24.5 49t7 57.5q0 53 -19.5 99.5t-52 80t-77 53t-93.5 19.5q-43 0 -75.5 -12t-57 -28.5t-42 -36t-27.5 -33.5q-23 -33 -31 -64t-12 -72h-213zM408 0v250h213v-250h-213z" />
<glyph unicode="@" horiz-adv-x="1556" d="M23 758q6 174 67.5 316.5t165.5 244.5t246.5 159.5t310.5 63.5q154 0 286 -46t228 -133t151.5 -212t55.5 -283q0 -111 -29.5 -211t-83 -174.5t-125 -119t-153.5 -44.5q-20 0 -47 6.5t-53.5 19.5t-47 37t-26.5 60h-4q-31 -43 -70 -67.5t-77 -36.5t-71.5 -15.5t-54.5 -3.5 q-68 0 -126 26t-101 74t-67.5 116.5t-24.5 152.5q0 88 28.5 171t81 147.5t126 104.5t163.5 40q72 0 118 -18.5t74.5 -42t42 -47t19.5 -33.5h4l21 112h151l-86 -473q-8 -47 -12 -74.5t-4 -46.5q6 -53 51 -53q102 0 155.5 105.5t63.5 285.5q0 125 -42 221.5t-115.5 163 t-176 101t-221.5 34.5q-145 0 -262 -50t-198 -136t-125 -200.5t-44 -243.5q0 -63 12.5 -134t41 -140.5t75.5 -134t120 -113t172.5 -77t230.5 -28.5q92 0 168.5 11.5t138 29.5t106.5 39.5t74 42.5l80 -125q-158 -88 -295 -121t-272 -33q-221 0 -377 71t-253 183.5t-141 251.5 t-44 279zM537 692q0 -98 49 -157.5t129 -59.5q66 0 117 25.5t84.5 70.5t51 105.5t17.5 130.5q0 106 -59.5 147t-143.5 41q-47 0 -92 -21.5t-78.5 -60.5t-54 -95t-20.5 -126z" />
<glyph unicode="A" horiz-adv-x="1400" d="M27 0l575 1516h199l575 -1516h-235l-168 446h-545l-168 -446h-233zM506 649h391l-192 580h-5z" />
<glyph unicode="B" horiz-adv-x="1187" d="M154 0v1516h393q106 0 183 -24t129 -61.5t84 -85t49.5 -94.5t22.5 -88t5 -67q0 -63 -14.5 -109.5t-35 -80.5t-44 -57.5t-41.5 -39.5q25 -14 62.5 -40t73.5 -70t62.5 -107.5t26.5 -151.5q0 -59 -20.5 -135t-76 -143.5t-153.5 -114.5t-254 -47h-452zM375 203h239 q84 0 137.5 26.5t84 63.5t42 78t11.5 69q0 41 -15.5 80t-37.5 70q-25 33 -56.5 52.5t-64.5 27.5t-66 10t-61 2h-213v-479zM375 885h180q78 0 126 20.5t73.5 52t35 69.5t9.5 71q0 80 -33 124t-77 64.5t-86 23.5t-60 3h-168v-428z" />
<glyph unicode="C" horiz-adv-x="1601" d="M78 764q0 166 62.5 308t169 247.5t247.5 165t301 59.5q43 0 97.5 -6t116 -22.5t125 -45t124.5 -73.5q102 -74 153.5 -145.5t79.5 -123.5h-266q-16 18 -51 54.5t-87 72t-124 61t-164 25.5q-119 0 -221 -46t-178 -123.5t-120 -184t-44 -225.5q0 -123 46 -229.5t123 -186.5 t178.5 -126t211.5 -46q121 0 228.5 54.5t185.5 146.5h272q-63 -111 -145 -188.5t-173 -125t-186.5 -69t-183.5 -21.5q-162 0 -303 63.5t-246.5 172t-167 252t-61.5 305.5z" />
<glyph unicode="D" horiz-adv-x="1499" d="M133 0v1516h492q119 0 214 -21.5t170.5 -58.5t133 -88.5t100.5 -110.5q82 -115 119 -244t37 -239q0 -78 -14.5 -155t-39 -147.5t-59.5 -131t-78 -101.5q-131 -129 -281.5 -174t-310.5 -45h-483zM354 203h264q100 0 200 27.5t179.5 91t130 169t50.5 263.5q0 86 -29 184 t-94.5 181t-171 138.5t-260.5 55.5h-269v-1110z" />
<glyph unicode="E" horiz-adv-x="1064" d="M133 0v1516h817v-203h-596v-447h596v-202h-596v-461h596v-203h-817z" />
<glyph unicode="F" horiz-adv-x="987" d="M133 0v1516h766v-203h-545v-455h545v-203h-545v-655h-221z" />
<glyph unicode="G" horiz-adv-x="1701" d="M78 754q0 164 59.5 307t164 250.5t245.5 170t305 62.5q96 0 194.5 -25.5t187.5 -76.5t166 -128t132 -179h-258q-25 27 -60.5 61.5t-87 67t-117 55t-149.5 22.5q-119 0 -221 -47t-178 -128t-119 -187.5t-43 -224.5q0 -125 48 -231.5t126 -183.5t179.5 -121t209.5 -44 q10 0 43 2t79 13.5t100.5 34t109.5 64.5t104.5 105.5t85.5 157.5h-706v203h958q-4 -190 -74.5 -337t-181 -245t-250 -149.5t-276.5 -51.5q-166 0 -308.5 62.5t-245.5 170t-162.5 249t-59.5 301.5z" />
<glyph unicode="H" horiz-adv-x="1372" d="M154 0v1516h221v-654h624v654h222v-1516h-222v659h-624v-659h-221z" />
<glyph unicode="I" horiz-adv-x="526" d="M154 0v1516h221v-1516h-221z" />
<glyph unicode="J" horiz-adv-x="997" d="M0 303h227q18 -47 43 -72.5t51.5 -38t53 -15.5t45.5 -3q57 0 106 31t72 98q6 23 11 52.5t5 60.5v1100h222v-1088q0 -63 -10.5 -118.5t-26.5 -96.5q-51 -121 -153.5 -181.5t-227.5 -60.5q-74 0 -143.5 23.5t-126 66.5t-95.5 104.5t-53 137.5z" />
<glyph unicode="K" horiz-adv-x="1265" d="M184 0v1516h222v-752h4l575 752h272l-591 -752l591 -764h-272l-575 764h-4v-764h-222z" />
<glyph unicode="L" horiz-adv-x="909" d="M162 0v1516h221v-1313h526v-203h-747z" />
<glyph unicode="M" horiz-adv-x="1912" d="M154 0v1516h348l454 -1162l457 1162h348v-1516h-221v1280h-6l-510 -1280h-133l-512 1280h-4v-1280h-221z" />
<glyph unicode="N" horiz-adv-x="1511" d="M154 0v1516h241l738 -1154h4v1154h221v-1516h-230l-749 1171h-4v-1171h-221z" />
<glyph unicode="O" horiz-adv-x="1732" d="M78 758q0 154 58.5 296t162.5 251.5t248.5 174t318.5 64.5q168 0 312.5 -62.5t251 -170t166 -251.5t59.5 -306q0 -156 -59.5 -297.5t-166 -249t-251 -172t-312.5 -64.5q-170 0 -314 64.5t-249.5 173t-165 251t-59.5 298.5zM299 758q0 -92 34 -195.5t103.5 -189.5 t177 -142.5t252.5 -56.5q147 0 254 56.5t176.5 142.5t103.5 187.5t34 191.5q0 100 -36 204.5t-106.5 190.5t-177 140t-248.5 54q-147 0 -253.5 -57t-176 -144t-103.5 -189.5t-34 -192.5z" />
<glyph unicode="P" horiz-adv-x="1144" d="M133 0v1516h438q135 0 236.5 -34t167 -94.5t98.5 -145.5t33 -185q0 -102 -33 -186.5t-98.5 -144.5t-166.5 -94t-237 -34h-217v-598h-221zM354 801h217q94 0 154.5 24.5t96.5 61.5t49.5 82t13.5 88t-13.5 88t-49.5 82t-96 61.5t-155 24.5h-217v-512z" />
<glyph unicode="Q" horiz-adv-x="1714" d="M78 762q0 164 59.5 306t165 248.5t247.5 167t308 60.5t309.5 -63.5t248 -171t163.5 -249.5t59 -302q0 -100 -20.5 -183t-49 -149t-60 -115t-56.5 -82q27 -16 50.5 -26t47 -16.5t52 -8.5t69.5 -2v-205q-74 0 -130 11.5t-101 28t-82 37t-68 40.5q-100 -55 -209.5 -86 t-224.5 -31q-160 0 -302 61.5t-247.5 169t-167 251t-61.5 309.5zM299 748q0 -53 6 -85t14 -63q80 33 161 40t128 7q166 0 331 -74t333 -211q18 23 42.5 58t48 83t39 111.5t15.5 143.5q0 117 -42 222t-116.5 185t-176 128t-220.5 48q-117 0 -220 -47t-179 -127t-120 -188.5 t-44 -230.5zM412 410q78 -111 197.5 -173.5t254.5 -62.5q100 0 150.5 24t79.5 44q-82 61 -153 100t-132 62.5t-115.5 31.5t-105.5 8q-39 0 -65.5 -3t-46 -7t-35 -11t-29.5 -13z" />
<glyph unicode="R" horiz-adv-x="1216" d="M133 0v1516h469q160 0 252 -35t152 -92q72 -70 105.5 -166.5t33.5 -192.5q0 -152 -54.5 -243t-126 -140t-144 -65.5t-109.5 -16.5l424 -565h-277l-500 702h-4v-702h-221zM354 733h152q23 0 62.5 2t85.5 10.5t94.5 27t87 51t63.5 82.5t25 124q0 47 -17.5 97.5t-57.5 91.5 t-103.5 67.5t-157.5 26.5h-234v-580z" />
<glyph unicode="S" horiz-adv-x="1021" d="M37 449h221q0 -18 7 -64.5t32 -92.5t74 -82t133 -36q104 0 174 67.5t70 188.5q0 63 -24 104t-59.5 68t-78.5 43.5t-82 32.5q-76 29 -126 49.5t-85 38.5t-59.5 37.5t-51.5 44.5q-53 51 -77.5 128t-24.5 157q0 66 25.5 138t79 132.5t132 100.5t187.5 40q94 0 174 -29.5 t137 -85t90 -133t33 -174.5h-221q0 63 -20.5 105.5t-52.5 68t-69.5 35.5t-70.5 10q-49 0 -87 -19t-63.5 -50t-39 -68t-13.5 -69q0 -55 22.5 -91t54.5 -58.5t66.5 -37t59.5 -22.5q72 -27 153.5 -56.5t150.5 -82t115 -136.5t46 -221q0 -98 -34 -182t-94.5 -145.5t-146.5 -96.5 t-190 -35q-78 0 -161 27t-150.5 85t-111.5 148.5t-44 217.5z" />
<glyph unicode="T" horiz-adv-x="833" d="M14 1313v203h803v-203h-291v-1313h-221v1313h-291z" />
<glyph unicode="U" horiz-adv-x="1316" d="M150 489v1027h221v-1020q0 -104 32.5 -168t78.5 -97.5t95.5 -45t79.5 -11.5q31 0 79 11.5t94.5 45t80 97t33.5 168.5v1020h221v-1027q0 -129 -41 -224t-112 -165q-72 -59 -161 -94t-194 -35q-104 0 -193 35t-161 94q-72 70 -112.5 165t-40.5 224z" />
<glyph unicode="V" horiz-adv-x="1400" d="M25 1516h237l440 -1137l441 1137h233l-608 -1516h-133z" />
<glyph unicode="W" horiz-adv-x="1855" d="M33 1516h229l289 -1141h4l293 1141h162l288 -1133h5l294 1133h226l-424 -1516h-195l-274 1059h-4l-275 -1059h-194z" />
<glyph unicode="X" horiz-adv-x="1327" d="M23 0l501 760l-501 756h264l375 -574l378 574h263l-506 -756l501 -760h-260l-376 578l-381 -578h-258z" />
<glyph unicode="Y" horiz-adv-x="1214" d="M27 1516h247l334 -711l332 711h246l-467 -969v-547h-221v547z" />
<glyph unicode="Z" horiz-adv-x="946" d="M8 0v203l658 1110h-623v203h870v-203l-653 -1110h680v-203h-932z" />
<glyph unicode="[" horiz-adv-x="833" d="M256 29v927q0 129 40 227.5t101.5 170t135 119t141.5 73.5v-248q-68 -43 -108 -89t-59.5 -93t-25.5 -93t-6 -89v-830q0 -37 3 -84t21.5 -97t59.5 -101t115 -96v-252q-88 35 -164 91t-132 129t-89 158t-33 177z" />
<glyph unicode="\" horiz-adv-x="1021" d="M115 1516h233l590 -1721h-233z" />
<glyph unicode="]" horiz-adv-x="833" d="M160 -274q74 45 114.5 96t59 101t21.5 97.5t3 83.5v830q0 43 -6 89t-25.5 93t-59.5 93t-107 89v248q68 -27 141.5 -74t135 -118.5t101.5 -170t40 -227.5v-927q0 -92 -33 -177t-89.5 -158t-132 -129.5t-163.5 -90.5v252z" />
<glyph unicode="^" horiz-adv-x="1228" d="M135 727l383 789h193l383 -789h-213l-267 573l-266 -573h-213z" />
<glyph unicode="_" horiz-adv-x="1024" d="M0 -154h1024v-102h-1024v102z" />
<glyph unicode="`" d="M254 1513l86 154l461 -252l-90 -164z" />
<glyph unicode="a" horiz-adv-x="1419" d="M78 563q0 104 37 211t111.5 194t187 142t266.5 55q119 0 221.5 -48t163.5 -142h4v160h213v-1135h-213v176h-4q-61 -104 -164.5 -154.5t-220.5 -50.5q-143 0 -256 50.5t-189.5 133.5t-116.5 189.5t-40 218.5zM291 565q0 -78 28.5 -149.5t80 -127t123 -89t155.5 -33.5 t155.5 31.5t125 86t84 127t30.5 154.5q0 90 -30.5 165t-84 128t-125 83t-153.5 30q-98 0 -171 -38t-122 -97.5t-72.5 -131t-23.5 -139.5z" />
<glyph unicode="b" horiz-adv-x="1409" d="M137 0v1516h213v-539h4q70 98 171.5 143t217.5 45q113 0 219.5 -44t188.5 -123.5t131 -189.5t49 -241q0 -123 -45 -231.5t-123 -189t-184.5 -128t-230.5 -47.5q-39 0 -89.5 8.5t-103.5 30t-106.5 58t-96.5 96.5h-4v-164h-211zM344 571q0 -96 34 -170.5t88 -127t123.5 -80 t141.5 -27.5q76 0 146.5 30.5t124 85t85 128t31.5 157.5q0 80 -28.5 153t-81 129t-123 89t-154.5 33q-88 0 -159.5 -34t-122 -90t-78 -128t-27.5 -148z" />
<glyph unicode="c" horiz-adv-x="1284" d="M78 569q0 115 41 222.5t116.5 190.5t183 133t243.5 50q121 0 217 -40t165.5 -100t113.5 -132t61 -135h-236q-12 27 -35.5 63.5t-61.5 69.5t-92.5 56.5t-129.5 23.5q-102 0 -174 -39t-116 -97.5t-63.5 -130t-19.5 -135.5q0 -74 23.5 -146.5t69.5 -128.5t114.5 -92 t160.5 -36q121 0 201 60.5t121 148.5h238q-33 -94 -88.5 -169t-129 -127t-160.5 -80t-182 -28q-139 0 -247.5 52.5t-182 137.5t-112.5 191.5t-39 216.5z" />
<glyph unicode="d" horiz-adv-x="1406" d="M78 563q0 104 36 211t108.5 194t183 142t262.5 55q119 0 221 -46t164 -124h4v521h213v-1516h-197v162h-4q-68 -94 -172 -142.5t-229 -48.5q-141 0 -251 50.5t-185.5 133.5t-114.5 189.5t-39 218.5zM291 565q0 -78 28.5 -149.5t80 -127t123 -89t155.5 -33.5t155.5 31.5 t125 86t84 127t30.5 154.5q0 90 -30.5 165t-84 128t-125 83t-153.5 30q-98 0 -171 -38t-122 -97.5t-72.5 -131t-23.5 -139.5z" />
<glyph unicode="e" horiz-adv-x="1314" d="M80 569q0 127 46 236.5t125 189.5t184.5 125t226.5 45q115 0 219 -44t184 -121.5t127 -184t47 -231.5q0 -29 -2 -64t-4 -45h-940q20 -82 60 -140.5t92.5 -96t109.5 -55t111 -17.5q119 0 201.5 58.5t121.5 131.5h213q-41 -111 -106.5 -184.5t-140 -117.5t-153.5 -63.5 t-145 -19.5q-121 0 -226 48.5t-183 130t-123 190.5t-45 229zM293 639h733q-4 61 -32.5 121.5t-78 106.5t-115 75t-141.5 29q-78 0 -142 -29t-113.5 -75t-78 -106.5t-32.5 -121.5z" />
<glyph unicode="f" horiz-adv-x="567" d="M43 940v195h100v55q0 92 35 155.5t101 108.5q35 20 64.5 32.5t61 18.5t67.5 8.5t83 2.5v-195q-106 0 -152.5 -36t-46.5 -95v-55h199v-195h-199v-940h-213v940h-100z" />
<glyph unicode="g" horiz-adv-x="1427" d="M78 571q0 94 38 198.5t113.5 193t190.5 145.5t268 57q127 0 230.5 -48t160.5 -113v131h213v-981q0 -139 -42 -251t-120.5 -190t-192.5 -118.5t-259 -40.5q-199 0 -343.5 98t-215.5 260h237q12 -16 36 -44t63 -54.5t94 -46t131 -19.5q84 0 156.5 21.5t127 69.5t85 124 t30.5 187h-4q-14 -20 -44 -50t-77 -59t-113.5 -49.5t-156.5 -20.5q-141 0 -253 55.5t-190.5 141.5t-120.5 192.5t-42 210.5zM291 567q0 -78 28.5 -149.5t81 -128t124 -90t157.5 -33.5q104 0 179 42t124 103.5t71.5 130t22.5 123.5q0 119 -43 198t-105.5 125t-130 64.5 t-116.5 18.5q-84 0 -156.5 -33t-125 -88t-82 -129t-29.5 -154z" />
<glyph unicode="h" horiz-adv-x="1273" d="M135 0v1516h213v-502h4q39 57 87 88t93.5 45t83 16t54.5 2q133 0 236.5 -53t164.5 -149q35 -55 52.5 -125t19.5 -166v-672h-213v616q0 33 -4 92.5t-31 118t-84 101.5t-164 43q-135 0 -217 -90t-82 -263v-618h-213z" />
<glyph unicode="i" horiz-adv-x="487" d="M137 0v1135h213v-1135h-213zM137 1266v250h213v-250h-213z" />
<glyph unicode="j" horiz-adv-x="509" d="M23 -223q53 4 81.5 24.5t42 54t15.5 79t2 98.5v1102h213v-1102q0 -68 -2 -121t-13.5 -98t-36 -84t-69.5 -78q-55 -47 -117.5 -72.5t-115.5 -25.5v223zM164 1266v250h213v-250h-213z" />
<glyph unicode="k" horiz-adv-x="1118" d="M158 0v1516h213v-928h4l403 547h252l-412 -535l478 -600h-267l-454 588h-4v-588h-213z" />
<glyph unicode="l" horiz-adv-x="487" d="M137 0v1516h213v-1516h-213z" />
<glyph unicode="m" horiz-adv-x="1988" d="M137 0v1135h197v-123h4q14 18 37.5 43.5t61.5 50t92.5 42t134.5 17.5q51 0 104 -12t101.5 -35.5t86 -59.5t60.5 -83q14 20 38.5 53t67.5 63.5t107.5 52t161.5 21.5q143 0 243.5 -54t155.5 -150q63 -115 63 -277v-684h-213v631q0 37 -6 94t-31.5 111.5t-80 94.5t-150.5 40 q-102 0 -156.5 -40t-80 -94.5t-29.5 -111.5t-4 -92v-633h-213v631v31q0 53 -5 93q-7 52 -42 109q-41 61 -96.5 84t-114.5 23q-104 0 -161.5 -41t-84.5 -96.5t-31 -112.5t-4 -88v-633h-213z" />
<glyph unicode="n" horiz-adv-x="1277" d="M135 0v1135h199v-121h4q43 57 94 88t98.5 45t85 16t54.5 2q133 0 236.5 -53t164.5 -149q35 -55 52.5 -125t19.5 -166v-672h-213v616q0 33 -4 92.5t-31 118t-84 101.5t-164 43q-135 0 -217 -90t-82 -263v-618h-213z" />
<glyph unicode="o" horiz-adv-x="1382" d="M78 575q0 117 46 223.5t128 187.5t193.5 130t244.5 49q129 0 240.5 -47t194.5 -128t130.5 -189.5t47.5 -229.5q0 -104 -42 -210.5t-120 -192.5t-192.5 -141.5t-258.5 -55.5q-143 0 -257 54.5t-192.5 140.5t-120.5 193.5t-42 215.5zM291 569q0 -78 28.5 -149.5t82 -129 t126 -91t162.5 -33.5q86 0 159 32.5t127 89t84 130t30 153.5q0 76 -29 148t-81 128t-126 90t-164 34t-163.5 -34t-126 -90t-81 -129t-28.5 -149z" />
<glyph unicode="p" horiz-adv-x="1404" d="M137 -379v1514h195v-174h4q78 111 185.5 157.5t217.5 46.5q143 0 254 -53t184.5 -139t111.5 -196.5t38 -223.5q0 -109 -39 -212t-112.5 -186t-180 -133.5t-241.5 -50.5q-90 0 -157 20.5t-116 49.5t-79.5 62.5t-47.5 60.5h-4v-543h-213zM346 569q0 -86 30 -159.5t82 -128 t122.5 -85t150.5 -30.5q76 0 144.5 28.5t122 81t85 126t31.5 163.5q0 76 -28.5 148.5t-80 130t-123 92.5t-157.5 35q-84 0 -153.5 -34t-120 -89t-78 -128t-27.5 -151z" />
<glyph unicode="q" horiz-adv-x="1406" d="M80 569q0 115 41 222.5t117.5 190.5t185 133t244.5 50q96 0 169.5 -25.5t123 -57t77 -61.5t31.5 -38h4v152h197v-1514h-213v537h-4q-59 -86 -160.5 -136.5t-218.5 -50.5q-139 0 -250 52.5t-187.5 136.5t-116.5 191.5t-40 217.5zM293 569q0 -80 28.5 -153.5t80 -129 t124 -88t160.5 -32.5q86 0 157.5 32.5t123 88t80 127t28.5 149.5q0 84 -28.5 158t-81 129t-125 88t-158.5 33q-90 0 -161.5 -33t-122 -88t-78 -128t-27.5 -153z" />
<glyph unicode="r" horiz-adv-x="655" d="M137 0v1135h199v-103h4q33 47 75 74t83 40t75.5 16t55.5 3v-219q-25 0 -70 -10t-84 -31q-51 -29 -88 -95.5t-37 -188.5v-621h-213z" />
<glyph unicode="s" horiz-adv-x="868" d="M41 373h213q6 -96 54 -151.5t138 -55.5q72 0 118 42t46 114q0 37 -15 63.5t-42 46t-63.5 34.5t-77.5 30q-47 16 -102.5 37.5t-103.5 59.5t-81 96.5t-33 148.5q0 63 25.5 121.5t72 104.5t113 73.5t146.5 27.5q49 0 108 -16t111.5 -55t89.5 -102.5t39 -157.5h-213 q-10 70 -48 103.5t-98 33.5q-59 0 -96 -34t-37 -87q0 -35 14.5 -58.5t39 -40t56 -27.5t66.5 -22q33 -10 90.5 -30.5t113.5 -62.5t97 -108.5t41 -166.5q0 -76 -25.5 -141.5t-74.5 -114.5t-120 -78t-161 -29q-53 0 -122.5 18.5t-131 64.5t-104.5 124t-43 195z" />
<glyph unicode="t" horiz-adv-x="567" d="M8 940v195h154v381h213v-381h186v-195h-186v-940h-213v940h-154z" />
<glyph unicode="u" horiz-adv-x="1277" d="M135 520v615h213v-615q0 -104 21.5 -172.5t60.5 -108.5t90 -56.5t111 -16.5q133 0 215 87t82 273v609h213v-1135h-195v123h-4q-43 -74 -134 -113t-200 -39q-98 0 -180 30t-143 83q-72 61 -111 163.5t-39 272.5z" />
<glyph unicode="v" horiz-adv-x="1099" d="M27 1135h227l297 -811h4l291 811h227l-446 -1135h-150z" />
<glyph unicode="w" horiz-adv-x="1628" d="M27 1135h227l252 -738h4l235 738h140l235 -738h4l250 738h228l-420 -1135h-119l-246 764h-4l-246 -764h-116z" />
<glyph unicode="x" horiz-adv-x="1060" d="M4 0l393 582l-379 553h258l250 -373l248 373h258l-370 -553l395 -582h-250l-281 403l-274 -403h-248z" />
<glyph unicode="y" horiz-adv-x="1175" d="M20 1135h230l334 -881l342 881h229l-627 -1514h-221l166 402z" />
<glyph unicode="z" horiz-adv-x="833" d="M6 0v166l545 774h-492v195h725v-207l-514 -733h557v-195h-821z" />
<glyph unicode="{" horiz-adv-x="681" d="M29 473v176q25 0 57.5 9.5t61 29t49 52t20.5 79.5v420q0 70 25.5 122t65.5 86t90.5 51.5t99.5 17.5h133v-162h-90q-37 0 -58.5 -14.5t-34 -36t-15.5 -48t-3 -51.5v-413q0 -66 -23.5 -108t-55.5 -67.5t-66.5 -37t-57.5 -13.5v-6q23 -4 57.5 -13t66.5 -35t55.5 -72 t23.5 -122v-411q0 -25 3 -51.5t15.5 -48t34 -36t58.5 -14.5h90v-162h-133q-49 0 -99.5 17.5t-90.5 51.5t-65.5 86t-25.5 122v418q0 51 -20.5 87t-49 57.5t-61.5 30.5t-57 9z" />
<glyph unicode="|" d="M453 -205v1721h231v-1721h-231z" />
<glyph unicode="}" horiz-adv-x="681" d="M51 -244h90q37 0 58.5 14.5t34 36t15.5 48t3 51.5v413q0 63 22.5 106.5t55 69t67.5 37t58 13.5v6q-23 2 -58 12t-67.5 36t-55 72t-22.5 122v411q0 25 -3 51.5t-15.5 48t-34 36t-58.5 14.5h-90v162h133q49 0 99.5 -17.5t90.5 -51.5t65.5 -86t25.5 -122v-418 q0 -51 20.5 -87t49 -57.5t61.5 -30.5t57 -9v-176q-25 0 -57.5 -9.5t-61 -29t-49 -52t-20.5 -79.5v-420q0 -70 -25.5 -122t-65.5 -86t-90.5 -51.5t-99.5 -17.5h-133v162z" />
<glyph unicode="~" horiz-adv-x="1228" d="M141 510q16 33 40 64.5t54.5 56t70.5 40t91 15.5q53 0 110.5 -19.5t117.5 -45.5q57 -25 112.5 -49.5t96.5 -24.5q31 0 56 13t46.5 33.5t40 47.5t37.5 53l73 -168q-23 -33 -48 -64.5t-55 -56t-67.5 -40t-85.5 -15.5q-57 0 -107 19.5t-101 48.5q-49 29 -106.5 50t-129.5 21 q-35 0 -60.5 -13t-47 -33.5t-37 -47t-27.5 -53.5z" />
<glyph unicode="&#xa1;" horiz-adv-x="567" d="M176 -379v1137h213v-1137h-213zM176 887v250h213v-250h-213z" />
<glyph unicode="&#xa2;" d="M78 836q0 86 26.5 165.5t79 144t128 109.5t173.5 64v197h195v-197q141 -23 236.5 -108t142.5 -218h-244q-23 45 -79 83t-150 38q-78 0 -134.5 -27.5t-92 -70.5t-52 -94.5t-16.5 -96.5q0 -51 19.5 -102t57.5 -91t92 -65.5t126 -25.5q55 0 94 13t65.5 30.5t43 37t24.5 31.5 h240q-45 -127 -144.5 -204.5t-228.5 -106.5v-201h-195v201q-129 29 -207.5 89.5t-123.5 132t-60.5 145t-15.5 127.5z" />
<glyph unicode="&#xa3;" d="M18 670v194h82q-20 35 -33.5 75t-13.5 110q0 100 33 190t97.5 157.5t157.5 107.5t214 40q82 0 162 -25.5t147.5 -77.5t117.5 -129t71 -177h-232q-8 25 -23.5 61.5t-46 70t-79.5 58.5t-123 25q-68 0 -120 -25t-88 -66.5t-55.5 -96t-19.5 -113.5q0 -41 8.5 -72t19.5 -52.5 t24.5 -36t23.5 -24.5h449v-194h-287q18 -16 36.5 -40t35 -59.5t26.5 -85t10 -112.5t-8 -102.5t-18 -75.5h67q76 0 125 24.5t77 62t39 81t11 79.5q0 41 -8 64.5t-20 50.5h229q4 -25 8 -50.5t4 -62.5q0 -70 -21.5 -147.5t-73.5 -144t-142 -109.5t-228 -43h-567v195h270 q16 33 28.5 70.5t14.5 107.5q0 96 -38.5 172t-112.5 125h-230z" />
<glyph unicode="&#xa4;" d="M55 276l146 142q-33 47 -53.5 109.5t-20.5 134.5q2 72 23.5 135t50.5 108l-144 137l127 134l144 -144q47 33 109.5 50.5t133.5 17.5q72 0 132.5 -20.5t105.5 -49.5l143 144l131 -130l-141 -139q29 -47 48.5 -109.5t17.5 -133.5q2 -72 -17.5 -133.5t-48.5 -106.5l141 -143 l-131 -132l-143 142q-43 -29 -104.5 -49.5t-133.5 -20.5t-134 21.5t-109 50.5l-144 -144zM322 659q0 -51 19 -95t53 -77.5t78 -53t95 -19.5t95.5 19.5t78 53t53 77.5t19.5 95t-19.5 95.5t-53 78t-78 53t-95.5 19.5t-95 -19.5t-78 -53t-53 -78t-19 -95.5z" />
<glyph unicode="&#xa5;" d="M0 1516h231l336 -611l338 611h232l-295 -521h254v-176h-342l-80 -145v-88h422v-176h-422v-410h-213v410h-420v176h420v88l-80 145h-340v176h252z" />
<glyph unicode="&#xa6;" d="M453 -205v688h231v-688h-231zM453 827v689h231v-689h-231z" />
<glyph unicode="&#xa7;" horiz-adv-x="1173" d="M84 655q0 14 3 50t20.5 81t56.5 95.5t110 91.5q-23 33 -51 85t-28 130q0 53 21.5 115.5t69.5 116t122.5 89t179.5 35.5q57 0 124.5 -16.5t128 -60.5t105.5 -118.5t58 -191.5h-213q-18 102 -70.5 143t-124.5 41q-59 0 -96 -18t-57.5 -45t-27.5 -55.5t-7 -48.5 q0 -33 13 -58.5t34.5 -44t46 -33t49.5 -26.5l278 -146q37 -18 83 -44.5t86 -65.5t68 -92.5t28 -124.5q0 -70 -20.5 -122t-49.5 -90t-60.5 -63.5t-54.5 -40.5q76 -66 98.5 -135.5t22.5 -128.5q0 -96 -36 -172t-96 -130t-140 -83t-170 -29q-86 0 -166 29t-141.5 84t-99.5 138 t-44 192h213q8 -104 67.5 -172t176.5 -68q113 0 168 62.5t55 142.5q0 20 -4 43.5t-22.5 48.5t-55.5 53.5t-102 63.5l-314 162q-35 18 -75.5 42.5t-76.5 62.5t-59.5 93.5t-23.5 132.5zM297 674q0 -37 12.5 -64.5t28.5 -47t34.5 -32t28.5 -18.5l367 -188q47 39 80 79.5 t33 108.5q0 66 -36 99.5t-102 68.5l-342 174q-49 -33 -76.5 -81t-27.5 -99z" />
<glyph unicode="&#xa8;" d="M303 1303v249h213v-249h-213zM621 1303v249h213v-249h-213z" />
<glyph unicode="&#xa9;" horiz-adv-x="1638" d="M37 758q0 160 60.5 302t167 248.5t248.5 169t308 62.5q162 0 304.5 -62.5t249 -169t167 -248.5t60.5 -302q0 -164 -62.5 -306.5t-168 -248t-248 -167t-302.5 -61.5q-164 0 -307 62.5t-249.5 169t-167 249t-60.5 302.5zM201 758q0 -129 48 -243t131 -200t196.5 -135 t242.5 -49t242 49t196.5 134t132 199t48.5 245q0 127 -47.5 240.5t-130 199.5t-196.5 136t-245 50q-133 0 -245.5 -50t-195.5 -136t-130 -199.5t-47 -240.5zM391 760q0 100 31 185t88 147.5t139 98.5t182 36q82 0 152 -25.5t121 -68.5t83 -99.5t38 -118.5h-154 q-16 49 -41.5 81t-57.5 51.5t-68 26.5t-73 7q-61 0 -113 -23.5t-90 -66.5t-60.5 -102.5t-22.5 -128.5q0 -78 22.5 -137.5t61.5 -100.5t91 -62.5t111 -21.5q37 0 73 7.5t69 27t58.5 51t39.5 80.5h154q-6 -61 -38 -117.5t-83 -99.5t-121 -68.5t-152 -25.5q-100 0 -182 36 t-139 98t-88 147t-31 186z" />
<glyph unicode="&#xaa;" horiz-adv-x="788" d="M27 1210q0 57 20.5 116.5t62.5 108t104 79t148 30.5q61 0 108.5 -26.5t70.5 -61.5h4v72h164v-631h-164v72h-4q-16 -31 -66.5 -59.5t-116.5 -28.5q-78 0 -139 27.5t-104 73.5t-65.5 105.5t-22.5 122.5zM190 1210q0 -35 12.5 -66.5t36 -56t54.5 -39t67 -14.5q78 0 132.5 46 t54.5 132q0 78 -52.5 128.5t-132.5 50.5q-43 0 -75.5 -16.5t-54 -43t-32 -58.5t-10.5 -63z" />
<glyph unicode="&#xab;" horiz-adv-x="757" d="M68 483v211l280 279v-232l-153 -151l153 -152v-229zM410 483v211l280 279v-232l-153 -151l153 -152v-229z" />
<glyph unicode="&#xac;" horiz-adv-x="1228" d="M98 635v213h1032v-627h-212v414h-820z" />
<glyph unicode="&#xad;" horiz-adv-x="573" d="M0 485v213h573v-213h-573z" />
<glyph unicode="&#xae;" horiz-adv-x="1638" d="M37 758q0 160 60.5 302t167 248.5t248.5 169t308 62.5q162 0 304.5 -62.5t249 -169t167 -248.5t60.5 -302q0 -164 -62.5 -306.5t-168 -248t-248 -167t-302.5 -61.5q-164 0 -307 62.5t-249.5 169t-167 249t-60.5 302.5zM201 758q0 -129 48 -243t131 -200t196.5 -135 t242.5 -49t242 49t196.5 134t132 199t48.5 245q0 127 -47.5 240.5t-130 199.5t-196.5 136t-245 50q-133 0 -245.5 -50t-195.5 -136t-130 -199.5t-47 -240.5zM485 303v895h377q20 0 72.5 -4t106 -26.5t95.5 -71.5t42 -142q0 -74 -37 -134t-129 -83v-4q45 -12 73.5 -32.5 t45 -48t22.5 -63.5t8 -79q2 -57 4 -91t5.5 -55.5t7.5 -34t12 -26.5h-154q-6 10 -10 21.5t-7 30t-5 45t-4 69.5q-2 53 -10.5 88t-29 56.5t-56 32.5t-93.5 16h-182v-359h-154zM639 805h184q25 0 58.5 2t65.5 15.5t54.5 43t22.5 82.5q-4 35 -21.5 55.5t-44 32t-56.5 14.5t-58 3 h-205v-248z" />
<glyph unicode="&#xaf;" d="M205 1350v153h727v-153h-727z" />
<glyph unicode="&#xb0;" horiz-adv-x="819" d="M117 1165q0 61 22.5 114.5t62.5 93.5t93 62.5t115 22.5q61 0 114.5 -22.5t93 -62.5t62 -93t22.5 -115q0 -61 -22.5 -114.5t-62 -93t-93 -62.5t-114.5 -23t-114.5 23t-93.5 62.5t-62.5 93t-22.5 114.5zM244 1167q0 -70 48 -122t118 -52t117.5 52.5t47.5 121.5 q0 68 -48 119t-117 51q-70 0 -118 -51t-48 -119z" />
<glyph unicode="&#xb1;" horiz-adv-x="1228" d="M98 106h1032v-212h-1032v212zM98 573v213h410v332h213v-332h409v-213h-409v-331h-213v331h-410z" />
<glyph unicode="&#xb2;" horiz-adv-x="718" d="M51 1196v41q0 57 21.5 110.5t60.5 95.5t94.5 67.5t120.5 25.5q66 0 121 -24.5t95 -65.5t62.5 -95.5t22.5 -113.5q0 -45 -11 -81t-28.5 -65.5t-39 -54t-42.5 -47.5l-225 -227h348v-156h-594v127l349 352q29 29 54 65t25 87q0 53 -33.5 98t-97.5 45q-66 0 -102.5 -44 t-36.5 -103v-37h-164z" />
<glyph unicode="&#xb3;" horiz-adv-x="718" d="M33 885h164q4 -51 23.5 -80t43 -43t46 -17.5t34.5 -3.5q70 0 104.5 43t34.5 97q0 66 -44 103.5t-103 37.5h-53v156h51q41 0 62.5 15t31.5 34.5t12 37t2 19.5q0 39 -23.5 67.5t-74.5 28.5q-14 0 -30.5 -4t-31 -16t-23.5 -31.5t-11 -50.5h-164q0 74 28.5 124t69.5 79 q41 31 86 43t76 12q45 0 91 -16.5t84 -50t62.5 -83t24.5 -114.5q0 -72 -27.5 -109t-54.5 -61q66 -39 94.5 -92.5t28.5 -128.5q0 -68 -26.5 -122t-70.5 -93t-100.5 -59.5t-113.5 -20.5q-53 0 -107.5 19.5t-97.5 57t-70.5 94t-27.5 128.5z" />
<glyph unicode="&#xb4;" d="M336 1405l457 262l90 -166l-461 -250z" />
<glyph unicode="&#xb6;" horiz-adv-x="1306" d="M4 1061q0 106 37 178t102.5 115t155.5 61.5t197 18.5h600v-1825h-213v1661h-217v-1661h-213v1093q-215 0 -332 97.5t-117 261.5z" />
<glyph unicode="&#xb7;" horiz-adv-x="567" d="M190 410v221h187v-221h-187z" />
<glyph unicode="&#xb8;" d="M373 -336h108q6 -16 21.5 -39.5t62.5 -23.5q35 0 60.5 21.5t25.5 62.5t-26.5 60t-59.5 19q-29 0 -44 -9t-25 -19l-70 65l66 199h106l-43 -139q10 0 20.5 1t20.5 1q66 0 117 -47t51 -125q0 -37 -13.5 -72t-38 -62.5t-62.5 -44t-87 -16.5q-31 0 -62.5 9.5t-58 30t-46 52 t-23.5 76.5z" />
<glyph unicode="&#xb9;" horiz-adv-x="718" d="M199 1360v156h290v-910h-163v754h-127z" />
<glyph unicode="&#xba;" horiz-adv-x="788" d="M53 1217q0 63 25.5 122.5t71 105.5t107.5 72.5t136 26.5q72 0 133.5 -26.5t107.5 -70.5t72.5 -104.5t26.5 -128.5q0 -57 -23.5 -116.5t-66.5 -107.5t-106.5 -78.5t-143.5 -30.5t-142.5 29.5t-106.5 77.5t-67.5 108.5t-23.5 120.5zM217 1212q0 -35 13.5 -66.5t36 -56 t55 -40t71.5 -15.5q78 0 127 54t49 126q0 68 -48 122.5t-128 54.5t-128 -54.5t-48 -124.5z" />
<glyph unicode="&#xbb;" horiz-adv-x="757" d="M68 209v229l153 152l-153 151v232l280 -279v-211zM410 209v229l153 152l-153 151v232l280 -279v-211z" />
<glyph unicode="&#xbc;" horiz-adv-x="1433" d="M33 1360v156h291v-910h-164v754h-127zM260 0l682 1516h150l-682 -1516h-150zM737 141v142l426 626h140v-628h98v-140h-98v-141h-144v141h-422zM907 281h252v389h-4z" />
<glyph unicode="&#xbd;" horiz-adv-x="1462" d="M33 1360v156h291v-910h-164v754h-127zM207 0l688 1516h149l-688 -1516h-149zM829 590v41q0 57 21.5 110.5t60.5 95.5t94.5 67.5t120.5 25.5q66 0 121.5 -24.5t95 -65.5t62 -95.5t22.5 -113.5q0 -45 -11 -81t-28.5 -65.5t-39 -54t-41.5 -47.5l-226 -227h349v-156h-594v127 l348 352q29 29 54.5 65t25.5 87q0 53 -34 98t-97 45q-66 0 -103 -44t-37 -103v-37h-164z" />
<glyph unicode="&#xbe;" horiz-adv-x="1599" d="M33 885h164q4 -51 23.5 -80t43 -43t46 -17.5t34.5 -3.5q70 0 104.5 43t34.5 97q0 66 -44 103.5t-103 37.5h-53v156h51q41 0 62.5 15t31.5 34.5t12 37t2 19.5q0 39 -23.5 67.5t-74.5 28.5q-14 0 -30.5 -4t-31 -16t-23.5 -31.5t-11 -50.5h-164q0 74 28.5 124t69.5 79 q41 31 86 43t76 12q45 0 91 -16.5t84 -50t62.5 -83t24.5 -114.5q0 -72 -27.5 -109t-54.5 -61q66 -39 94.5 -92.5t28.5 -128.5q0 -68 -26.5 -122t-70.5 -93t-100.5 -59.5t-113.5 -20.5q-53 0 -107.5 19.5t-97.5 57t-70.5 94t-27.5 128.5zM426 0l682 1516h149l-682 -1516h-149 zM903 141v142l426 626h139v-628h99v-140h-99v-141h-143v141h-422zM1073 281h252v389h-4z" />
<glyph unicode="&#xbf;" horiz-adv-x="1060" d="M82 51q0 74 15.5 127t42 94t58 74t66.5 64q55 49 88 94t50.5 86t24.5 80t13 78h213q-2 -88 -23.5 -158t-53 -125t-67.5 -97t-69 -75q-41 -43 -69.5 -73t-45 -54.5t-23.5 -49t-7 -57.5q0 -53 19.5 -99t52 -80t76.5 -53.5t94 -19.5q43 0 75.5 12.5t57 29t42 36t27.5 33.5 q23 33 31 63.5t12 71.5h213q-6 -129 -54 -218t-116.5 -142t-146.5 -77t-143 -24q-100 0 -183.5 39t-144 103.5t-93 147.5t-32.5 169zM440 887v250h213v-250h-213z" />
<glyph unicode="&#xc0;" horiz-adv-x="1400" d="M27 0l575 1516h199l575 -1516h-235l-168 446h-545l-168 -446h-233zM387 1843l86 154l461 -252l-90 -164zM506 649h391l-192 580h-5z" />
<glyph unicode="&#xc1;" horiz-adv-x="1400" d="M27 0l575 1516h199l575 -1516h-235l-168 446h-545l-168 -446h-233zM469 1735l457 262l90 -166l-461 -250zM506 649h391l-192 580h-5z" />
<glyph unicode="&#xc2;" horiz-adv-x="1400" d="M27 0l575 1516h199l575 -1516h-235l-168 446h-545l-168 -446h-233zM313 1624l285 277h205l287 -277h-244l-141 141l-148 -141h-244zM506 649h391l-192 580h-5z" />
<glyph unicode="&#xc3;" horiz-adv-x="1400" d="M27 0l575 1516h199l575 -1516h-235l-168 446h-545l-168 -446h-233zM326 1784q45 29 78.5 45t58 23.5t42 9.5t32.5 2q16 0 58 -8.5t88 -19.5t86 -19.5t56 -8.5t30.5 2t32 8.5t41 17.5t60.5 30l88 -129q-80 -66 -138 -80.5t-85 -14.5q-18 0 -59 8.5t-87 18.5t-87 18.5 t-56 8.5q-41 0 -73.5 -13.5t-69.5 -31.5zM506 649h391l-192 580h-5z" />
<glyph unicode="&#xc4;" horiz-adv-x="1400" d="M27 0l575 1516h199l575 -1516h-235l-168 446h-545l-168 -446h-233zM436 1632v250h213v-250h-213zM506 649h391l-192 580h-5zM754 1632v250h213v-250h-213z" />
<glyph unicode="&#xc5;" horiz-adv-x="1400" d="M27 0l575 1516h199l575 -1516h-235l-168 446h-545l-168 -446h-233zM475 1784q0 47 17.5 88t48 71.5t71.5 49t88 18.5t88 -18.5t72 -49t49.5 -71.5t18.5 -88t-18.5 -88t-49.5 -72t-71.5 -48t-88.5 -17q-47 0 -88 17t-71.5 48t-48 72t-17.5 88zM506 649h391l-192 580h-5z M596 1784q0 -43 30.5 -74t73.5 -31q45 0 76 31t31 74q0 45 -31 75.5t-76 30.5q-43 0 -73.5 -30.5t-30.5 -75.5z" />
<glyph unicode="&#xc6;" horiz-adv-x="1904" d="M0 0l1018 1516h756v-203h-517v-447h517v-202h-517v-461h517v-203h-738v420h-499l-277 -420h-260zM682 623h354v565h-2h-4z" />
<glyph unicode="&#xc7;" horiz-adv-x="1601" d="M78 764q0 166 62.5 308t169 247.5t247.5 165t301 59.5q43 0 97.5 -6t116 -22.5t125 -45t124.5 -73.5q102 -74 153.5 -145.5t79.5 -123.5h-266q-16 18 -51 54.5t-87 72t-124 61t-164 25.5q-119 0 -221 -46t-178 -123.5t-120 -184t-44 -225.5q0 -123 46 -229.5t123 -186.5 t178.5 -126t211.5 -46q121 0 228.5 54.5t185.5 146.5h272q-63 -111 -145 -188.5t-173 -125t-186.5 -69t-183.5 -21.5h-6l-35 -110q10 0 20.5 1t20.5 1q66 0 117 -47t51 -125q0 -37 -13.5 -72t-38 -62.5t-62.5 -44t-87 -16.5q-31 0 -62.5 9.5t-58 30t-46 52t-23.5 76.5h108 q6 -16 21.5 -39.5t62.5 -23.5q35 0 60.5 21.5t25.5 62.5t-26.5 60t-59.5 19q-29 0 -44 -9t-25 -19l-70 65l59 181q-141 20 -263 89.5t-212 174t-141 237.5t-51 281z" />
<glyph unicode="&#xc8;" horiz-adv-x="1064" d="M133 0v1516h817v-203h-596v-447h596v-202h-596v-461h596v-203h-817zM219 1853l86 154l461 -252l-90 -164z" />
<glyph unicode="&#xc9;" horiz-adv-x="1064" d="M133 0v1516h817v-203h-596v-447h596v-202h-596v-461h596v-203h-817zM301 1745l457 262l90 -166l-461 -250z" />
<glyph unicode="&#xca;" horiz-adv-x="1064" d="M133 0v1516h817v-203h-596v-447h596v-202h-596v-461h596v-203h-817zM145 1634l285 277h205l287 -277h-244l-141 142l-148 -142h-244z" />
<glyph unicode="&#xcb;" horiz-adv-x="1064" d="M133 0v1516h817v-203h-596v-447h596v-202h-596v-461h596v-203h-817zM268 1642v250h213v-250h-213zM586 1642v250h213v-250h-213z" />
<glyph unicode="&#xcc;" horiz-adv-x="526" d="M-133 1853l86 154l461 -252l-90 -164zM154 0v1516h221v-1516h-221z" />
<glyph unicode="&#xcd;" horiz-adv-x="526" d="M113 1745l456 262l90 -166l-460 -250zM154 0v1516h221v-1516h-221z" />
<glyph unicode="&#xce;" horiz-adv-x="526" d="M-125 1634l285 277h205l286 -277h-243l-142 142l-147 -142h-244zM154 0v1516h221v-1516h-221z" />
<glyph unicode="&#xcf;" horiz-adv-x="526" d="M-2 1642v250h213v-250h-213zM154 0v1516h221v-1516h-221zM315 1642v250h213v-250h-213z" />
<glyph unicode="&#xd0;" horiz-adv-x="1499" d="M4 659v203h129v654h496q229 0 378.5 -80t235.5 -199q82 -115 119 -244t37 -239q0 -78 -14.5 -155t-39 -147.5t-59.5 -131t-78 -101.5q-131 -129 -282.5 -174t-304.5 -45h-488v659h-129zM354 203h269q96 0 195.5 27.5t179 91t130 169t50.5 263.5q0 86 -29 184t-94.5 181 t-171 138.5t-256.5 55.5h-273v-451h396v-203h-396v-456z" />
<glyph unicode="&#xd1;" horiz-adv-x="1511" d="M154 0v1516h241l738 -1154h4v1154h221v-1516h-230l-749 1171h-4v-1171h-221zM381 1784q45 29 79 45t58.5 23.5t42 9.5t31.5 2q16 0 58 -8.5t88 -19.5t86 -19.5t57 -8.5q16 0 30.5 2t32 8.5t41 17.5t59.5 30l89 -129q-80 -66 -138.5 -80.5t-85.5 -14.5q-18 0 -59 8.5 t-87 18.5t-87 18.5t-55 8.5q-41 0 -74 -13.5t-70 -31.5z" />
<glyph unicode="&#xd2;" horiz-adv-x="1732" d="M78 758q0 154 58.5 296t162.5 251.5t248.5 174t318.5 64.5q168 0 312.5 -62.5t251 -170t166 -251.5t59.5 -306q0 -156 -59.5 -297.5t-166 -249t-251 -172t-312.5 -64.5q-170 0 -314 64.5t-249.5 173t-165 251t-59.5 298.5zM299 758q0 -92 34 -195.5t103.5 -189.5 t177 -142.5t252.5 -56.5q147 0 254 56.5t176.5 142.5t103.5 187.5t34 191.5q0 100 -36 204.5t-106.5 190.5t-177 140t-248.5 54q-147 0 -253.5 -57t-176 -144t-103.5 -189.5t-34 -192.5zM553 1853l86 154l461 -252l-90 -164z" />
<glyph unicode="&#xd3;" horiz-adv-x="1732" d="M78 758q0 154 58.5 296t162.5 251.5t248.5 174t318.5 64.5q168 0 312.5 -62.5t251 -170t166 -251.5t59.5 -306q0 -156 -59.5 -297.5t-166 -249t-251 -172t-312.5 -64.5q-170 0 -314 64.5t-249.5 173t-165 251t-59.5 298.5zM299 758q0 -92 34 -195.5t103.5 -189.5 t177 -142.5t252.5 -56.5q147 0 254 56.5t176.5 142.5t103.5 187.5t34 191.5q0 100 -36 204.5t-106.5 190.5t-177 140t-248.5 54q-147 0 -253.5 -57t-176 -144t-103.5 -189.5t-34 -192.5zM635 1745l457 262l90 -166l-461 -250z" />
<glyph unicode="&#xd4;" horiz-adv-x="1732" d="M78 758q0 154 58.5 296t162.5 251.5t248.5 174t318.5 64.5q168 0 312.5 -62.5t251 -170t166 -251.5t59.5 -306q0 -156 -59.5 -297.5t-166 -249t-251 -172t-312.5 -64.5q-170 0 -314 64.5t-249.5 173t-165 251t-59.5 298.5zM299 758q0 -92 34 -195.5t103.5 -189.5 t177 -142.5t252.5 -56.5q147 0 254 56.5t176.5 142.5t103.5 187.5t34 191.5q0 100 -36 204.5t-106.5 190.5t-177 140t-248.5 54q-147 0 -253.5 -57t-176 -144t-103.5 -189.5t-34 -192.5zM479 1634l285 277h205l286 -277h-243l-142 142l-147 -142h-244z" />
<glyph unicode="&#xd5;" horiz-adv-x="1732" d="M78 758q0 154 58.5 296t162.5 251.5t248.5 174t318.5 64.5q168 0 312.5 -62.5t251 -170t166 -251.5t59.5 -306q0 -156 -59.5 -297.5t-166 -249t-251 -172t-312.5 -64.5q-170 0 -314 64.5t-249.5 173t-165 251t-59.5 298.5zM299 758q0 -92 34 -195.5t103.5 -189.5 t177 -142.5t252.5 -56.5q147 0 254 56.5t176.5 142.5t103.5 187.5t34 191.5q0 100 -36 204.5t-106.5 190.5t-177 140t-248.5 54q-147 0 -253.5 -57t-176 -144t-103.5 -189.5t-34 -192.5zM492 1784q45 29 78.5 45t58 23.5t42 9.5t31.5 2q16 0 58.5 -8.5t88.5 -19.5t86 -19.5 t56 -8.5t30.5 2t32 8.5t41 17.5t60.5 30l88 -129q-80 -66 -138 -80.5t-85 -14.5q-18 0 -59 8.5t-87.5 18.5t-87.5 18.5t-55 8.5q-41 0 -73.5 -13.5t-69.5 -31.5z" />
<glyph unicode="&#xd6;" horiz-adv-x="1732" d="M78 758q0 154 58.5 296t162.5 251.5t248.5 174t318.5 64.5q168 0 312.5 -62.5t251 -170t166 -251.5t59.5 -306q0 -156 -59.5 -297.5t-166 -249t-251 -172t-312.5 -64.5q-170 0 -314 64.5t-249.5 173t-165 251t-59.5 298.5zM299 758q0 -92 34 -195.5t103.5 -189.5 t177 -142.5t252.5 -56.5q147 0 254 56.5t176.5 142.5t103.5 187.5t34 191.5q0 100 -36 204.5t-106.5 190.5t-177 140t-248.5 54q-147 0 -253.5 -57t-176 -144t-103.5 -189.5t-34 -192.5zM602 1642v250h213v-250h-213zM920 1642v250h213v-250h-213z" />
<glyph unicode="&#xd7;" horiz-adv-x="1228" d="M125 176l342 342l-342 342l147 148l342 -342l342 342l148 -148l-344 -342l344 -342l-148 -147l-342 344l-342 -344z" />
<glyph unicode="&#xd8;" horiz-adv-x="1732" d="M78 758q0 156 58.5 298t162.5 250.5t248.5 173t316.5 64.5q129 0 227.5 -30.5t157.5 -65.5l142 194l170 -118l-146 -199q18 -16 57 -61t80 -117t72 -169t31 -220q0 -158 -60.5 -300.5t-166 -251t-250 -172t-312.5 -63.5q-80 0 -178 19.5t-196 72.5l-144 -196l-164 115 l146 200q-74 70 -122 144.5t-78 149.5t-41 145.5t-11 136.5zM299 758q0 -92 35 -198.5t121 -205.5l673 926q-59 33 -126.5 47t-133.5 14q-150 0 -257 -58t-176.5 -145t-102.5 -189.5t-33 -190.5zM616 227q4 -2 23.5 -11t51.5 -18.5t76 -16.5t99 -7q143 0 251 55.5 t177.5 141.5t104.5 188.5t35 198.5q0 33 -5.5 77t-20.5 95t-44 107.5t-76 113.5z" />
<glyph unicode="&#xd9;" horiz-adv-x="1316" d="M150 489v1027h221v-1020q0 -104 32.5 -168t78.5 -97.5t95.5 -45t79.5 -11.5q31 0 79 11.5t94.5 45t80 97t33.5 168.5v1020h221v-1027q0 -129 -41 -224t-112 -165q-72 -59 -161 -94t-194 -35q-104 0 -193 35t-161 94q-72 70 -112.5 165t-40.5 224zM293 1853l86 154 l461 -252l-90 -164z" />
<glyph unicode="&#xda;" horiz-adv-x="1316" d="M150 489v1027h221v-1020q0 -104 32.5 -168t78.5 -97.5t95.5 -45t79.5 -11.5q31 0 79 11.5t94.5 45t80 97t33.5 168.5v1020h221v-1027q0 -129 -41 -224t-112 -165q-72 -59 -161 -94t-194 -35q-104 0 -193 35t-161 94q-72 70 -112.5 165t-40.5 224zM477 1745l457 262 l90 -166l-461 -250z" />
<glyph unicode="&#xdb;" horiz-adv-x="1316" d="M150 489v1027h221v-1020q0 -104 32.5 -168t78.5 -97.5t95.5 -45t79.5 -11.5q31 0 79 11.5t94.5 45t80 97t33.5 168.5v1020h221v-1027q0 -129 -41 -224t-112 -165q-72 -59 -161 -94t-194 -35q-104 0 -193 35t-161 94q-72 70 -112.5 165t-40.5 224zM270 1634l285 277h205 l287 -277h-244l-141 142l-148 -142h-244z" />
<glyph unicode="&#xdc;" horiz-adv-x="1316" d="M150 489v1027h221v-1020q0 -104 32.5 -168t78.5 -97.5t95.5 -45t79.5 -11.5q31 0 79 11.5t94.5 45t80 97t33.5 168.5v1020h221v-1027q0 -129 -41 -224t-112 -165q-72 -59 -161 -94t-194 -35q-104 0 -193 35t-161 94q-72 70 -112.5 165t-40.5 224zM393 1642v250h213v-250 h-213zM711 1642v250h213v-250h-213z" />
<glyph unicode="&#xdd;" horiz-adv-x="1214" d="M27 1516h247l334 -711l332 711h246l-467 -969v-547h-221v547zM426 1745l457 262l90 -166l-461 -250z" />
<glyph unicode="&#xde;" horiz-adv-x="1144" d="M133 0v1516h221v-299h217q135 0 236.5 -34t167 -94.5t98.5 -145.5t33 -185q0 -102 -33 -186.5t-98.5 -144.5t-166.5 -94t-237 -34h-217v-299h-221zM354 502h217q94 0 154.5 24.5t96.5 61.5t49.5 82t13.5 88t-13.5 88t-49.5 82t-96 61.5t-155 24.5h-217v-512z" />
<glyph unicode="&#xdf;" horiz-adv-x="1310" d="M135 0v1057q0 141 46 235t113.5 149.5t145.5 79t140 23.5q94 0 176 -35.5t143.5 -97t97 -143.5t35.5 -172q0 -51 -11 -90t-29.5 -69t-39 -51.5t-39.5 -35.5q86 -20 146.5 -64.5t99.5 -100.5t56.5 -117.5t17.5 -118.5q0 -100 -35 -187.5t-98.5 -152t-149.5 -101.5 t-188 -37q-51 0 -122 14.5t-136 61.5q-43 31 -69.5 57.5t-43 51t-25 48t-16.5 50.5h-4v-254h-211zM348 397h172q10 -66 38 -109.5t63 -70.5q35 -29 74.5 -40t74.5 -11q59 0 106.5 23.5t79 60.5t48 84t16.5 94q0 6 -1 27.5t-10.5 49t-27.5 59.5t-53 57.5t-89.5 43 t-131.5 17.5h-148v188q98 2 150.5 35t77 75t28.5 79t4 49q0 43 -15.5 86t-45 78t-73.5 56.5t-101 21.5q-88 0 -136.5 -39t-70 -89.5t-25.5 -98.5t-4 -66v-660z" />
<glyph unicode="&#xe0;" horiz-adv-x="1419" d="M78 563q0 104 37 211t111.5 194t187 142t266.5 55q119 0 221.5 -48t163.5 -142h4v160h213v-1135h-213v176h-4q-61 -104 -164.5 -154.5t-220.5 -50.5q-143 0 -256 50.5t-189.5 133.5t-116.5 189.5t-40 218.5zM291 565q0 -78 28.5 -149.5t80 -127t123 -89t155.5 -33.5 t155.5 31.5t125 86t84 127t30.5 154.5q0 90 -30.5 165t-84 128t-125 83t-153.5 30q-98 0 -171 -38t-122 -97.5t-72.5 -131t-23.5 -139.5zM395 1513l86 154l461 -252l-90 -164z" />
<glyph unicode="&#xe1;" horiz-adv-x="1419" d="M78 563q0 104 37 211t111.5 194t187 142t266.5 55q119 0 221.5 -48t163.5 -142h4v160h213v-1135h-213v176h-4q-61 -104 -164.5 -154.5t-220.5 -50.5q-143 0 -256 50.5t-189.5 133.5t-116.5 189.5t-40 218.5zM291 565q0 -78 28.5 -149.5t80 -127t123 -89t155.5 -33.5 t155.5 31.5t125 86t84 127t30.5 154.5q0 90 -30.5 165t-84 128t-125 83t-153.5 30q-98 0 -171 -38t-122 -97.5t-72.5 -131t-23.5 -139.5zM477 1405l457 262l90 -166l-461 -250z" />
<glyph unicode="&#xe2;" horiz-adv-x="1419" d="M78 563q0 104 37 211t111.5 194t187 142t266.5 55q119 0 221.5 -48t163.5 -142h4v160h213v-1135h-213v176h-4q-61 -104 -164.5 -154.5t-220.5 -50.5q-143 0 -256 50.5t-189.5 133.5t-116.5 189.5t-40 218.5zM291 565q0 -78 28.5 -149.5t80 -127t123 -89t155.5 -33.5 t155.5 31.5t125 86t84 127t30.5 154.5q0 90 -30.5 165t-84 128t-125 83t-153.5 30q-98 0 -171 -38t-122 -97.5t-72.5 -131t-23.5 -139.5zM322 1294l284 277h205l287 -277h-244l-141 142l-148 -142h-243z" />
<glyph unicode="&#xe3;" horiz-adv-x="1419" d="M78 563q0 104 37 211t111.5 194t187 142t266.5 55q119 0 221.5 -48t163.5 -142h4v160h213v-1135h-213v176h-4q-61 -104 -164.5 -154.5t-220.5 -50.5q-143 0 -256 50.5t-189.5 133.5t-116.5 189.5t-40 218.5zM291 565q0 -78 28.5 -149.5t80 -127t123 -89t155.5 -33.5 t155.5 31.5t125 86t84 127t30.5 154.5q0 90 -30.5 165t-84 128t-125 83t-153.5 30q-98 0 -171 -38t-122 -97.5t-72.5 -131t-23.5 -139.5zM334 1444q45 29 78.5 45t58.5 23.5t42 9.5t32 2q16 0 58 -8.5t88 -19.5t86 -19.5t57 -8.5q16 0 30.5 2.5t31.5 8.5t41 17t60 30 l88 -129q-80 -66 -138 -80t-85 -14q-18 0 -59 8t-87 18t-87 18.5t-56 8.5q-41 0 -73.5 -13.5t-69.5 -31.5z" />
<glyph unicode="&#xe4;" horiz-adv-x="1419" d="M78 563q0 104 37 211t111.5 194t187 142t266.5 55q119 0 221.5 -48t163.5 -142h4v160h213v-1135h-213v176h-4q-61 -104 -164.5 -154.5t-220.5 -50.5q-143 0 -256 50.5t-189.5 133.5t-116.5 189.5t-40 218.5zM291 565q0 -78 28.5 -149.5t80 -127t123 -89t155.5 -33.5 t155.5 31.5t125 86t84 127t30.5 154.5q0 90 -30.5 165t-84 128t-125 83t-153.5 30q-98 0 -171 -38t-122 -97.5t-72.5 -131t-23.5 -139.5zM444 1303v249h213v-249h-213zM762 1303v249h213v-249h-213z" />
<glyph unicode="&#xe5;" horiz-adv-x="1419" d="M78 563q0 104 37 211t111.5 194t187 142t266.5 55q119 0 221.5 -48t163.5 -142h4v160h213v-1135h-213v176h-4q-61 -104 -164.5 -154.5t-220.5 -50.5q-143 0 -256 50.5t-189.5 133.5t-116.5 189.5t-40 218.5zM291 565q0 -78 28.5 -149.5t80 -127t123 -89t155.5 -33.5 t155.5 31.5t125 86t84 127t30.5 154.5q0 90 -30.5 165t-84 128t-125 83t-153.5 30q-98 0 -171 -38t-122 -97.5t-72.5 -131t-23.5 -139.5zM483 1475q0 47 17.5 88t48.5 71.5t72 49t88 18.5t88 -18.5t71.5 -49t49 -71.5t18.5 -88t-18.5 -88t-49 -72t-71.5 -48.5t-88 -17.5 t-88 17.5t-72 48.5t-48.5 71.5t-17.5 88.5zM604 1475q0 -43 31 -74t74 -31q45 0 75.5 31t30.5 74q0 45 -30.5 75.5t-75.5 30.5q-43 0 -74 -30.5t-31 -75.5z" />
<glyph unicode="&#xe6;" horiz-adv-x="2316" d="M78 578q0 123 46 230t126 186t189.5 125t238.5 46q18 0 62 -3t100.5 -18.5t119 -49t119.5 -93.5h4v134h195v-134h4q41 55 95.5 87t109.5 49.5t103 22.5t77 5q123 0 227.5 -49t181 -131t119.5 -189.5t43 -222.5q0 -23 -2 -48t-4 -48h-946q10 -59 42 -115.5t80 -99.5 t111.5 -69.5t137.5 -26.5q39 0 84 10t90 32.5t85 59.5t69 92h219q-43 -117 -113 -192.5t-146.5 -118.5t-152.5 -60.5t-131 -17.5q-74 0 -132.5 16.5t-105.5 40t-81.5 51t-59.5 54.5h-4v-133h-195v133q-25 -23 -58.5 -50.5t-80.5 -52t-110.5 -42t-147.5 -17.5 q-141 0 -254 51.5t-191.5 136.5t-120.5 193.5t-42 225.5zM291 575q0 -78 25.5 -151.5t74.5 -130.5t121 -92t164 -35q90 0 162.5 32.5t125 89t81 130t28.5 153.5q0 76 -26.5 148t-77.5 128t-125 90t-168 34q-92 0 -164 -34t-121 -89t-74.5 -127t-25.5 -146zM1286 625h739 q-6 96 -43.5 162.5t-92 107.5t-116 58.5t-114.5 17.5t-115.5 -17.5t-117 -58.5t-93.5 -107.5t-47 -162.5z" />
<glyph unicode="&#xe7;" horiz-adv-x="1284" d="M78 569q0 115 41 222.5t116.5 190.5t183 133t243.5 50q121 0 217 -40t165.5 -100t113.5 -132t61 -135h-236q-12 27 -35.5 63.5t-61.5 69.5t-92.5 56.5t-129.5 23.5q-102 0 -174 -39t-116 -97.5t-63.5 -130t-19.5 -135.5q0 -74 23.5 -146.5t69.5 -128.5t114.5 -92 t160.5 -36q121 0 201 60.5t121 148.5h238q-31 -92 -86.5 -166t-126 -126t-156.5 -80t-178 -30l-35 -112q10 0 20.5 1t20.5 1q66 0 117 -47t51 -125q0 -37 -13.5 -72t-38 -62.5t-62.5 -44t-87 -16.5q-31 0 -62.5 9.5t-58 30t-46 52t-23.5 76.5h108q6 -16 21.5 -39.5 t62.5 -23.5q35 0 60.5 21.5t25.5 62.5t-26.5 60t-59.5 19q-29 0 -44 -9t-25 -19l-70 65l59 179q-119 16 -210 73.5t-153.5 138t-94 179t-31.5 198.5z" />
<glyph unicode="&#xe8;" horiz-adv-x="1314" d="M80 569q0 127 46 236.5t125 189.5t184.5 125t226.5 45q115 0 219 -44t184 -121.5t127 -184t47 -231.5q0 -29 -2 -64t-4 -45h-940q20 -82 60 -140.5t92.5 -96t109.5 -55t111 -17.5q119 0 201.5 58.5t121.5 131.5h213q-41 -111 -106.5 -184.5t-140 -117.5t-153.5 -63.5 t-145 -19.5q-121 0 -226 48.5t-183 130t-123 190.5t-45 229zM293 639h733q-4 61 -32.5 121.5t-78 106.5t-115 75t-141.5 29q-78 0 -142 -29t-113.5 -75t-78 -106.5t-32.5 -121.5zM344 1513l86 154l461 -252l-90 -164z" />
<glyph unicode="&#xe9;" horiz-adv-x="1314" d="M80 569q0 127 46 236.5t125 189.5t184.5 125t226.5 45q115 0 219 -44t184 -121.5t127 -184t47 -231.5q0 -29 -2 -64t-4 -45h-940q20 -82 60 -140.5t92.5 -96t109.5 -55t111 -17.5q119 0 201.5 58.5t121.5 131.5h213q-41 -111 -106.5 -184.5t-140 -117.5t-153.5 -63.5 t-145 -19.5q-121 0 -226 48.5t-183 130t-123 190.5t-45 229zM293 639h733q-4 61 -32.5 121.5t-78 106.5t-115 75t-141.5 29q-78 0 -142 -29t-113.5 -75t-78 -106.5t-32.5 -121.5zM426 1405l457 262l90 -166l-461 -250z" />
<glyph unicode="&#xea;" horiz-adv-x="1314" d="M80 569q0 127 46 236.5t125 189.5t184.5 125t226.5 45q115 0 219 -44t184 -121.5t127 -184t47 -231.5q0 -29 -2 -64t-4 -45h-940q20 -82 60 -140.5t92.5 -96t109.5 -55t111 -17.5q119 0 201.5 58.5t121.5 131.5h213q-41 -111 -106.5 -184.5t-140 -117.5t-153.5 -63.5 t-145 -19.5q-121 0 -226 48.5t-183 130t-123 190.5t-45 229zM270 1294l285 277h205l287 -277h-244l-141 142l-148 -142h-244zM293 639h733q-4 61 -32.5 121.5t-78 106.5t-115 75t-141.5 29q-78 0 -142 -29t-113.5 -75t-78 -106.5t-32.5 -121.5z" />
<glyph unicode="&#xeb;" horiz-adv-x="1314" d="M80 569q0 127 46 236.5t125 189.5t184.5 125t226.5 45q115 0 219 -44t184 -121.5t127 -184t47 -231.5q0 -29 -2 -64t-4 -45h-940q20 -82 60 -140.5t92.5 -96t109.5 -55t111 -17.5q119 0 201.5 58.5t121.5 131.5h213q-41 -111 -106.5 -184.5t-140 -117.5t-153.5 -63.5 t-145 -19.5q-121 0 -226 48.5t-183 130t-123 190.5t-45 229zM293 639h733q-4 61 -32.5 121.5t-78 106.5t-115 75t-141.5 29q-78 0 -142 -29t-113.5 -75t-78 -106.5t-32.5 -121.5zM393 1303v249h213v-249h-213zM711 1303v249h213v-249h-213z" />
<glyph unicode="&#xec;" horiz-adv-x="487" d="M-152 1513l86 154l461 -252l-90 -164zM137 0v1135h213v-1135h-213z" />
<glyph unicode="&#xed;" horiz-adv-x="487" d="M94 1405l457 262l90 -166l-461 -250zM137 0v1135h213v-1135h-213z" />
<glyph unicode="&#xee;" horiz-adv-x="487" d="M-143 1294l284 277h205l287 -277h-244l-141 142l-148 -142h-243zM137 0v1135h213v-1135h-213z" />
<glyph unicode="&#xef;" horiz-adv-x="487" d="M-20 1303v249h213v-249h-213zM137 0v1135h213v-1135h-213zM297 1303v249h213v-249h-213z" />
<glyph unicode="&#xf0;" horiz-adv-x="1382" d="M78 573q0 123 49 231.5t132 188.5t191.5 126t227.5 46q59 0 109.5 -14t97.5 -43l4 4q-41 47 -98.5 92t-128.5 86l-343 -114l-135 104l299 100q-55 23 -113.5 44.5t-109.5 39.5l246 80q57 -14 110.5 -34.5t108.5 -49.5l254 84l131 -106l-221 -74q104 -74 182 -164 t129 -188.5t77 -202.5t26 -205q0 -139 -47.5 -255t-130.5 -199.5t-194.5 -131t-240.5 -47.5q-152 0 -265.5 56.5t-191 144.5t-116.5 194.5t-39 206.5zM291 569q0 -72 27.5 -144.5t80 -129.5t127 -93t166.5 -36t166 36t125 93t79 131t28 149q0 70 -25 140.5t-75 127 t-126 92.5t-176 36q-92 0 -165.5 -36t-125 -94.5t-79 -130t-27.5 -141.5z" />
<glyph unicode="&#xf1;" horiz-adv-x="1277" d="M135 0v1135h199v-121h4q43 57 94 88t98.5 45t85 16t54.5 2q133 0 236.5 -53t164.5 -149q35 -55 52.5 -125t19.5 -166v-672h-213v616q0 33 -4 92.5t-31 118t-84 101.5t-164 43q-135 0 -217 -90t-82 -263v-618h-213zM264 1444q45 29 79 45t58.5 23.5t42 9.5t31.5 2 q16 0 58 -8.5t88.5 -19.5t86.5 -19.5t56 -8.5t30.5 2.5t32 8.5t41 17t60.5 30l88 -129q-80 -66 -138.5 -80t-84.5 -14q-18 0 -59.5 8t-87.5 18t-87 18.5t-55 8.5q-41 0 -74 -13.5t-70 -31.5z" />
<glyph unicode="&#xf2;" horiz-adv-x="1382" d="M78 575q0 117 46 223.5t128 187.5t193.5 130t244.5 49q129 0 240.5 -47t194.5 -128t130.5 -189.5t47.5 -229.5q0 -104 -42 -210.5t-120 -192.5t-192.5 -141.5t-258.5 -55.5q-143 0 -257 54.5t-192.5 140.5t-120.5 193.5t-42 215.5zM291 569q0 -78 28.5 -149.5t82 -129 t126 -91t162.5 -33.5q86 0 159 32.5t127 89t84 130t30 153.5q0 76 -29 148t-81 128t-126 90t-164 34t-163.5 -34t-126 -90t-81 -129t-28.5 -149zM377 1513l86 154l461 -252l-90 -164z" />
<glyph unicode="&#xf3;" horiz-adv-x="1382" d="M78 575q0 117 46 223.5t128 187.5t193.5 130t244.5 49q129 0 240.5 -47t194.5 -128t130.5 -189.5t47.5 -229.5q0 -104 -42 -210.5t-120 -192.5t-192.5 -141.5t-258.5 -55.5q-143 0 -257 54.5t-192.5 140.5t-120.5 193.5t-42 215.5zM291 569q0 -78 28.5 -149.5t82 -129 t126 -91t162.5 -33.5q86 0 159 32.5t127 89t84 130t30 153.5q0 76 -29 148t-81 128t-126 90t-164 34t-163.5 -34t-126 -90t-81 -129t-28.5 -149zM459 1405l456 262l91 -166l-461 -250z" />
<glyph unicode="&#xf4;" horiz-adv-x="1382" d="M78 575q0 117 46 223.5t128 187.5t193.5 130t244.5 49q129 0 240.5 -47t194.5 -128t130.5 -189.5t47.5 -229.5q0 -104 -42 -210.5t-120 -192.5t-192.5 -141.5t-258.5 -55.5q-143 0 -257 54.5t-192.5 140.5t-120.5 193.5t-42 215.5zM291 569q0 -78 28.5 -149.5t82 -129 t126 -91t162.5 -33.5q86 0 159 32.5t127 89t84 130t30 153.5q0 76 -29 148t-81 128t-126 90t-164 34t-163.5 -34t-126 -90t-81 -129t-28.5 -149zM303 1294l285 277h205l286 -277h-243l-142 142l-147 -142h-244z" />
<glyph unicode="&#xf5;" horiz-adv-x="1382" d="M78 575q0 117 46 223.5t128 187.5t193.5 130t244.5 49q129 0 240.5 -47t194.5 -128t130.5 -189.5t47.5 -229.5q0 -104 -42 -210.5t-120 -192.5t-192.5 -141.5t-258.5 -55.5q-143 0 -257 54.5t-192.5 140.5t-120.5 193.5t-42 215.5zM291 569q0 -78 28.5 -149.5t82 -129 t126 -91t162.5 -33.5q86 0 159 32.5t127 89t84 130t30 153.5q0 76 -29 148t-81 128t-126 90t-164 34t-163.5 -34t-126 -90t-81 -129t-28.5 -149zM315 1444q45 29 79 45t58.5 23.5t42 9.5t31.5 2q16 0 58.5 -8.5t88.5 -19.5t86 -19.5t56 -8.5t30.5 2.5t32 8.5t41 17t60.5 30 l88 -129q-80 -66 -138.5 -80t-84.5 -14q-18 0 -59.5 8t-87.5 18t-87 18.5t-55 8.5q-41 0 -73.5 -13.5t-69.5 -31.5z" />
<glyph unicode="&#xf6;" horiz-adv-x="1382" d="M78 575q0 117 46 223.5t128 187.5t193.5 130t244.5 49q129 0 240.5 -47t194.5 -128t130.5 -189.5t47.5 -229.5q0 -104 -42 -210.5t-120 -192.5t-192.5 -141.5t-258.5 -55.5q-143 0 -257 54.5t-192.5 140.5t-120.5 193.5t-42 215.5zM291 569q0 -78 28.5 -149.5t82 -129 t126 -91t162.5 -33.5q86 0 159 32.5t127 89t84 130t30 153.5q0 76 -29 148t-81 128t-126 90t-164 34t-163.5 -34t-126 -90t-81 -129t-28.5 -149zM426 1303v249h213v-249h-213zM743 1303v249h213v-249h-213z" />
<glyph unicode="&#xf7;" horiz-adv-x="1228" d="M98 412v213h1032v-213h-1032zM508 0v221h213v-221h-213zM508 815v221h213v-221h-213z" />
<glyph unicode="&#xf8;" horiz-adv-x="1382" d="M78 575q0 117 46 223.5t128 187.5t193.5 130t244.5 49q96 0 154.5 -17.5t89.5 -31.5l104 160l164 -109l-102 -155q104 -90 153.5 -208t49.5 -231q0 -109 -42 -216t-122 -193t-194 -139.5t-255 -53.5q-96 0 -157.5 19.5t-86.5 29.5l-106 -161l-162 108l105 158 q-111 102 -158 223t-47 227zM291 569q0 -76 27.5 -145.5t76.5 -126.5l428 651q-18 6 -50 14.5t-83 8.5q-90 0 -162.5 -34t-126 -90t-82 -129t-28.5 -149zM557 188q18 -6 50 -14t83 -8q88 0 162 33.5t126 90t82 129.5t30 150q0 63 -24 136t-79 135z" />
<glyph unicode="&#xf9;" horiz-adv-x="1277" d="M135 520v615h213v-615q0 -104 21.5 -172.5t60.5 -108.5t90 -56.5t111 -16.5q133 0 215 87t82 273v609h213v-1135h-195v123h-4q-43 -74 -134 -113t-200 -39q-98 0 -180 30t-143 83q-72 61 -111 163.5t-39 272.5zM274 1513l86 154l461 -252l-90 -164z" />
<glyph unicode="&#xfa;" horiz-adv-x="1277" d="M135 520v615h213v-615q0 -104 21.5 -172.5t60.5 -108.5t90 -56.5t111 -16.5q133 0 215 87t82 273v609h213v-1135h-195v123h-4q-43 -74 -134 -113t-200 -39q-98 0 -180 30t-143 83q-72 61 -111 163.5t-39 272.5zM459 1405l456 262l91 -166l-461 -250z" />
<glyph unicode="&#xfb;" horiz-adv-x="1277" d="M135 520v615h213v-615q0 -104 21.5 -172.5t60.5 -108.5t90 -56.5t111 -16.5q133 0 215 87t82 273v609h213v-1135h-195v123h-4q-43 -74 -134 -113t-200 -39q-98 0 -180 30t-143 83q-72 61 -111 163.5t-39 272.5zM252 1294l285 277h204l287 -277h-244l-141 142l-147 -142 h-244z" />
<glyph unicode="&#xfc;" horiz-adv-x="1277" d="M135 520v615h213v-615q0 -104 21.5 -172.5t60.5 -108.5t90 -56.5t111 -16.5q133 0 215 87t82 273v609h213v-1135h-195v123h-4q-43 -74 -134 -113t-200 -39q-98 0 -180 30t-143 83q-72 61 -111 163.5t-39 272.5zM375 1303v249h213v-249h-213zM692 1303v249h213v-249h-213z " />
<glyph unicode="&#xfd;" horiz-adv-x="1175" d="M20 1135h230l334 -881l342 881h229l-627 -1514h-221l166 402zM408 1405l456 262l90 -166l-460 -250z" />
<glyph unicode="&#xfe;" horiz-adv-x="1404" d="M137 -379v1895h213v-539h4q63 98 169 143t216 45q143 0 254 -53t184.5 -139t111.5 -196.5t38 -223.5q0 -109 -39 -212t-112.5 -186t-180 -133.5t-241.5 -50.5q-88 0 -155 19.5t-116 48.5t-80.5 62.5t-48.5 62.5h-4v-543h-213zM346 569q0 -86 30 -159.5t82 -128t122.5 -85 t150.5 -30.5q76 0 144.5 28.5t122 81t85 126t31.5 163.5q0 76 -28.5 148.5t-80 130t-123 92.5t-157.5 35q-84 0 -153.5 -34t-120 -89t-78 -128t-27.5 -151z" />
<glyph unicode="&#xff;" horiz-adv-x="1175" d="M20 1135h230l334 -881l342 881h229l-627 -1514h-221l166 402zM324 1303v249h213v-249h-213zM641 1303v249h213v-249h-213z" />
<glyph unicode="&#x152;" horiz-adv-x="2240" d="M78 750q0 135 49 276t148.5 256t248 188.5t348.5 73.5q68 0 145 -13t150.5 -43t139 -78t110.5 -116h4v222h725v-203h-504v-447h504v-202h-504v-461h504v-203h-725v217h-4q-66 -92 -151.5 -142t-167.5 -72.5t-145.5 -27t-84.5 -4.5q-193 0 -340 67.5t-247.5 178.5 t-151.5 250t-51 283zM299 748q0 -109 38 -212.5t110.5 -183.5t177 -129t237.5 -49t237.5 49t177.5 129t110.5 183.5t37.5 212.5q0 104 -36.5 209.5t-107.5 191.5t-175.5 139t-241.5 53q-139 0 -244.5 -53t-176 -139t-107.5 -191.5t-37 -209.5z" />
<glyph unicode="&#x153;" horiz-adv-x="2342" d="M78 571q0 113 45 220.5t125 190.5t190.5 133t243.5 50q121 0 211 -32.5t152.5 -75.5t99.5 -88t53 -70q18 31 53 76t92.5 87t140.5 72.5t193 30.5q121 0 228.5 -43t187.5 -121.5t127 -188.5t47 -243v-37q0 -18 -4 -55l-960 2q10 -55 41.5 -111.5t81 -100.5t114 -72.5 t139.5 -28.5q129 0 214 58.5t126 135.5h215q-39 -96 -91 -162.5t-109.5 -109.5t-114.5 -66.5t-106.5 -35t-85 -13.5t-48.5 -2q-51 0 -114.5 12.5t-128 43t-126 84t-110.5 137.5q-27 -43 -71 -91t-107.5 -90t-144 -69t-179.5 -27q-145 0 -260.5 54.5t-195.5 140.5t-122 193.5 t-42 211.5zM291 571q0 -80 29.5 -153.5t83 -129t125 -89t155.5 -33.5q80 0 153.5 29.5t129 83t88 126t32.5 158.5q0 88 -30.5 164t-84.5 129t-128 84t-160 31q-82 0 -153.5 -32t-125 -86t-84 -127t-30.5 -155zM1303 625h751q-10 100 -49 166.5t-92 106.5t-115.5 55.5 t-118.5 15.5q-57 0 -117.5 -16.5t-113.5 -56.5t-93 -106.5t-52 -164.5z" />
<glyph unicode="&#x178;" horiz-adv-x="1214" d="M27 1516h247l334 -711l332 711h246l-467 -969v-547h-221v547zM342 1642v250h213v-250h-213zM659 1642v250h213v-250h-213z" />
<glyph unicode="&#x2c6;" d="M180 1294l285 277h205l286 -277h-243l-142 142l-147 -142h-244z" />
<glyph unicode="&#x2dc;" d="M193 1444q45 29 78.5 45t58 23.5t42 9.5t31.5 2q16 0 58.5 -8.5t88.5 -19.5t86 -19.5t56 -8.5t30.5 2.5t32 8.5t41 17t60.5 30l88 -129q-80 -66 -138 -80t-85 -14q-18 0 -59 8t-87.5 18t-87.5 18.5t-55 8.5q-41 0 -73.5 -13.5t-69.5 -31.5z" />
<glyph unicode="&#x2000;" horiz-adv-x="1005" />
<glyph unicode="&#x2001;" horiz-adv-x="2011" />
<glyph unicode="&#x2002;" horiz-adv-x="1005" />
<glyph unicode="&#x2003;" horiz-adv-x="2011" />
<glyph unicode="&#x2004;" horiz-adv-x="670" />
<glyph unicode="&#x2005;" horiz-adv-x="502" />
<glyph unicode="&#x2006;" horiz-adv-x="335" />
<glyph unicode="&#x2007;" horiz-adv-x="335" />
<glyph unicode="&#x2008;" horiz-adv-x="251" />
<glyph unicode="&#x2009;" horiz-adv-x="402" />
<glyph unicode="&#x200a;" horiz-adv-x="111" />
<glyph unicode="&#x2010;" horiz-adv-x="573" d="M0 485v213h573v-213h-573z" />
<glyph unicode="&#x2011;" horiz-adv-x="573" d="M0 485v213h573v-213h-573z" />
<glyph unicode="&#x2012;" horiz-adv-x="573" d="M0 485v213h573v-213h-573z" />
<glyph unicode="&#x2013;" horiz-adv-x="1024" d="M72 485v213h880v-213h-880z" />
<glyph unicode="&#x2014;" horiz-adv-x="2048" d="M72 485v213h1904v-213h-1904z" />
<glyph unicode="&#x2018;" horiz-adv-x="567" d="M176 1004v227q0 29 4 70.5t25.5 83.5t63.5 78t120 53v-130q-12 -4 -25.5 -10t-24.5 -18t-18.5 -32.5t-7.5 -53.5v-19h76v-249h-213z" />
<glyph unicode="&#x2019;" horiz-adv-x="567" d="M178 1004v129q12 4 25.5 10t25 18.5t18.5 32.5t7 53v19h-76v250h213v-228q0 -29 -4 -70.5t-25.5 -83.5t-64.5 -78t-119 -52z" />
<glyph unicode="&#x201a;" horiz-adv-x="567" d="M178 0v250h213v-227q0 -29 -4 -71t-25.5 -84t-64.5 -78t-119 -52v129q12 4 25.5 10t25 18.5t18.5 33t7 53.5v18h-76z" />
<glyph unicode="&#x201c;" horiz-adv-x="870" d="M170 1004v227q0 29 4 70.5t25.5 83.5t63.5 78t120 53v-130q-12 -4 -25.5 -10t-24.5 -18t-18.5 -32.5t-7.5 -53.5v-19h76v-249h-213zM489 1004v227q0 29 4.5 70.5t26 83.5t63.5 78t119 53v-130q-12 -4 -25 -10t-24.5 -18t-18.5 -32.5t-7 -53.5v-19h75v-249h-213z" />
<glyph unicode="&#x201d;" horiz-adv-x="870" d="M168 1004v129q12 4 25.5 10t24.5 18.5t18.5 32.5t7.5 53v19h-76v250h213v-228q0 -29 -4 -70.5t-25.5 -83.5t-64.5 -78t-119 -52zM487 1004v129q12 4 25.5 10t25 18.5t18.5 32.5t7 53v19h-76v250h213v-228q0 -29 -4 -70.5t-25.5 -83.5t-64.5 -78t-119 -52z" />
<glyph unicode="&#x201e;" horiz-adv-x="870" d="M168 0v250h213v-227q0 -29 -4 -71t-25.5 -84t-64.5 -78t-119 -52v129q12 4 25.5 10t24.5 18.5t18.5 33t7.5 53.5v18h-76zM487 0v250h213v-227q0 -29 -4 -71t-25.5 -84t-64.5 -78t-119 -52v129q12 4 25.5 10t25 18.5t18.5 33t7 53.5v18h-76z" />
<glyph unicode="&#x2022;" horiz-adv-x="1241" d="M307 772q0 63 23.5 120.5t65.5 101.5t100.5 70t126.5 26q63 0 119.5 -26t98.5 -69t66.5 -100t24.5 -123t-24.5 -124t-67.5 -101t-99.5 -67.5t-119.5 -24.5q-66 0 -123.5 25.5t-99.5 68.5t-66.5 100.5t-24.5 122.5z" />
<glyph unicode="&#x2026;" horiz-adv-x="2048" d="M236 0v250h213v-250h-213zM918 0v250h212v-250h-212zM1599 0v250h213v-250h-213z" />
<glyph unicode="&#x202f;" horiz-adv-x="402" />
<glyph unicode="&#x2039;" horiz-adv-x="419" d="M70 483v211l280 279v-232l-153 -151l153 -152v-229z" />
<glyph unicode="&#x203a;" horiz-adv-x="419" d="M70 209v229l153 152l-153 151v232l280 -279v-211z" />
<glyph unicode="&#x205f;" horiz-adv-x="502" />
<glyph unicode="&#x20ac;" d="M0 532l72 177h110v151h-182l72 176h110q0 117 39 211t107.5 160t166 101.5t216.5 35.5q147 0 246.5 -43t168.5 -108l-92 -183q-18 25 -44.5 49.5t-64.5 45t-91.5 33t-122.5 12.5q-150 0 -233 -82t-83 -221v-11h574l-72 -176h-502v-151h441l-72 -177h-369v-59 q0 -47 12.5 -104.5t59.5 -110.5q35 -39 87 -65.5t124 -26.5q49 0 88 14.5t68 36.5q55 45 77 125h217q-16 -94 -62 -162.5t-93 -107.5q-57 -47 -137 -74t-166 -27q-104 0 -204.5 43t-178.5 142q-59 76 -82 152.5t-23 164.5v59h-182z" />
<glyph unicode="&#x2122;" horiz-adv-x="2027" d="M0 1272v162h692v-162h-246v-682h-200v682h-246zM860 590v844h293l203 -533l200 533h293v-844h-200v598h-4l-213 -598h-154l-213 598h-4v-598h-201z" />
<glyph unicode="&#x25fc;" d="M0 0v1137h1137v-1137h-1137z" />
<glyph unicode="&#xfb01;" horiz-adv-x="995" d="M43 940v195h100v55q0 92 35 155.5t101 108.5q35 20 64.5 32.5t61 18.5t67.5 8.5t83 2.5v-195q-106 0 -152.5 -36t-46.5 -95v-55h502v-1135h-213v940h-289v-940h-213v940h-100zM645 1266v250h213v-250h-213z" />
<glyph unicode="&#xfb02;" horiz-adv-x="995" d="M43 940v195h100v55q0 92 35 155.5t101 108.5q35 20 64.5 32.5t61 18.5t67.5 8.5t83 2.5v-195q-106 0 -152.5 -36t-46.5 -95v-55h289v381h213v-1516h-213v940h-289v-940h-213v940h-100z" />
</font>
</defs>
</svg>
